<svg xmlns="http://www.w3.org/2000/svg" width="669" height="477" viewBox="0 0 669 477">
  <defs>
    <linearGradient id="extreme-sports_illustration--a" x1="40.299%" x2="74.535%" y1="24.129%" y2="97.049%">
      <stop offset="0%" stop-color="#387DE7"/>
      <stop offset="100%" stop-color="#428DFF" stop-opacity=".06"/>
    </linearGradient>
    <linearGradient id="extreme-sports_illustration--b" x1="49.285%" x2="49.285%" y1="20.922%" y2="103.575%">
      <stop offset="0%" stop-color="#8D8D8D" stop-opacity=".08"/>
      <stop offset="100%" stop-color="#FFF" stop-opacity="0"/>
    </linearGradient>
    <linearGradient id="extreme-sports_illustration--c" x1="43.6%" x2="50%" y1="22.023%" y2="100%">
      <stop offset="0%" stop-color="#93B8E8"/>
      <stop offset="100%" stop-color="#ADE8E6" stop-opacity="0"/>
    </linearGradient>
    <linearGradient id="extreme-sports_illustration--d" x1="96.697%" x2="7.198%" y1="43.602%" y2="88.23%">
      <stop offset="0%" stop-color="#387DE7"/>
      <stop offset="100%" stop-color="#428DFF" stop-opacity="0"/>
    </linearGradient>
    <linearGradient id="extreme-sports_illustration--e" x1="96.697%" x2="7.198%" y1="43.602%" y2="88.23%">
      <stop offset="0%" stop-color="#737373"/>
      <stop offset="100%" stop-color="#8F8F8F" stop-opacity="0"/>
    </linearGradient>
    <linearGradient id="extreme-sports_illustration--f" x1="50%" x2="4.521%" y1="100%" y2="5.917%">
      <stop offset="0%" stop-color="#65A2FF"/>
      <stop offset="100%" stop-color="#0146B0"/>
    </linearGradient>
    <linearGradient id="extreme-sports_illustration--g" x1="9.405%" x2="50%" y1="0%" y2="100%">
      <stop offset="0%" stop-color="#6BD26F"/>
      <stop offset="100%" stop-color="#3DD09A"/>
    </linearGradient>
  </defs>
  <g fill="none" fill-rule="evenodd">
    <path fill="#F4F6F9" d="M5.61791624,285.971686 C-28.0709482,237.594077 96.8572866,200.039492 191.08205,208.091411 C285.306813,216.14333 303.470448,233.253657 437.676558,224.195248 C571.882669,215.13684 622.55068,227.956088 595.798429,240.473976 C569.792597,252.642601 642.840101,254.255354 617.616249,283.169874 C592.392398,312.084395 459.318662,382.732379 252.132214,356.11554 C44.9457664,329.498701 29.160758,319.779486 5.61791624,285.971686 Z"/>
    <path fill="url(#extreme-sports_illustration--a)" d="M1.57157446,281.997286 C-5.29084135,244.058701 50.004285,268.616904 147.815457,271.118243 C205.2157,272.586148 265.898959,262.037203 323.280502,268.016444 C393.796467,275.364312 413.319723,300.460457 498.969918,297.438976 C546.478336,295.763022 614.324404,258.132512 620.654259,266.069991 C627.163568,274.2325 629.214298,313.630807 618.205343,339.574413 C599.459336,383.751088 547.258002,419.51926 464.40566,434.552361 C396.728356,446.832034 380.012281,519.077953 227.22737,434.552361 C159.256895,396.948879 122.637669,380.615553 51.1410408,346.861798 C14.1336602,329.390512 5.52433288,303.84995 1.57157446,281.997286 Z" opacity=".582"/>
    <g fill-rule="nonzero" transform="translate(399 303)">
      <path fill="#5E90DA" d="M7.82239091 19.3920168C7.42677305 19.3920168 6.80789736 19.6228356 6.51204124 19.9530037 6.11141428 19.6114539 5.24273927 19.3217506 4.44239305 19.1350217 4.15127708 18.7082804 4.12596265 18.3791901 4.15304203 18.1840024 4.16026992 18.131911 4.14105717 18.0796726 4.10163995 18.0438292 4.06208825 18.0079531 4.0072235 17.9927992 3.95432541 18.0032338 3.43237072 18.1055061 3.14537296 18.552839 2.99545302 18.9110123 2.98896473 18.9108817 2.98135023 18.9105387 2.97511407 18.9105387 2.16641376 18.9105387 1 19.5473766 1 20.3330097 1 21.1186428 2.16641376 21.7554807 2.97511407 21.7554807 3.00205898 21.7554807 3.03174377 21.7546478 3.06342883 21.7533088 3.35528441 21.9061048 3.69677711 22 3.94834139 22 4.25729177 22 4.10612796 21.8589776 3.92351442 21.6400304 4.83150581 21.4711171 6.02222545 21.1304981 6.51202443 20.7128524 6.80799822 21.0431674 7.42675624 21.2738556 7.8223741 21.2738556 8.35717091 21.2738556 7.51367585 20.8525521 7.51367585 20.3328791 7.51370947 19.813304 8.35720452 19.3920168 7.82239091 19.3920168zM2.22349316 20.4342529C2.10001386 20.4342529 2 20.3370755 2 20.2171346 2 20.0971937 2.10003067 20 2.22349316 20 2.34697246 20 2.44700313 20.0971774 2.44700313 20.2171346 2.44700313 20.3370918 2.34697246 20.4342529 2.22349316 20.4342529zM11.8731364 1.04401261C11.5905522 1.04401261 11.1484981 1.21712673 10.9371723 1.46475278 10.6510102 1.20859043 10.0305281.99131293 9.45885218.851266247 9.2509122.53121028 9.23283046.284392544 9.25217288.138001813 9.25733566.0989332589 9.24361227.0597544797 9.2154571.0328718851 9.18720589.00596479598 9.14801679-.00540060167 9.11023244.00242535641 8.73740766.0791295434 8.53240926.414629224 8.42532359.683259215 8.42068909.683161238 8.41525016.682904047 8.41079577.682904047 7.83315268.682904047 7 1.16053243 7 1.74975727 7 2.3389821 7.83315268 2.81661049 8.41079577 2.81661049 8.43004213 2.81661049 8.45124555 2.81598588 8.47387774 2.81498161 8.682346 2.92957862 8.92626937 3 9.10595814 3 9.32663698 3 9.21866283 2.89423322 9.08822459 2.73002282 9.73678986 2.60333782 10.5873039 2.34787357 10.9371603 2.03463929 11.1485702 2.28237556 11.5905402 2.4553917 11.8731244 2.4553917 12.2551221 2.4553917 11.6526256 2.13941405 11.6526256 1.74965929 11.6526496 1.35997802 12.2551461 1.04401261 11.8731364 1.04401261zM8.15790058 1.51463068C8.06970108 1.51463068 7.99826261 1.44174762 7.99826261 1.35179197 7.99826261 1.26183632 8.06971309 1.18894101 8.15790058 1.18894101 8.24610008 1.18894101 8.31755056 1.26182407 8.31755056 1.35179197 8.31755056 1.44175987 8.24610008 1.51463068 8.15790058 1.51463068z" opacity=".2"/>
      <path fill="#CCDDF8" d="M.499893691 17C.223825289 17 0 17.2238017 0 17.4998785 0 17.7761679.223825289 18 .499893691 18 .776205085 18 1 17.7761679 1 17.4998785 1 17.2238017.776174711 17 .499893691 17zM.499921027 13C.776190799 13 1 12.7761733 1 12.5000903 1 12.2238493.776168235 12 .499921027 12 .223831765 12 0 12.2238493 0 12.5000903 0 12.7761733.223831765 13 .499921027 13z"/>
    </g>
    <g fill-rule="nonzero" transform="translate(365 298)">
      <path fill="#5E90DA" d="M13.6701545,36.4360294 C12.9354357,36.4360294 11.7860951,36.8399624 11.236648,37.4177565 C10.4926265,36.8200443 8.87937293,36.3130635 7.39301567,35.9862879 C6.85237172,35.2394907 6.8053592,34.6635826 6.85564948,34.3220042 C6.86907271,34.2308443 6.83339189,34.1394271 6.76018847,34.0767011 C6.68673531,34.0139179 6.58484364,33.9873986 6.48660434,34.0056592 C5.51725991,34.1846356 4.98426407,34.9674682 4.70584133,35.5942715 C4.69379164,35.5940429 4.67965043,35.5934428 4.66806899,35.5934428 C3.16619698,35.5934428 1,36.707909 1,38.082767 C1,39.4576249 3.16619698,40.5720911 4.66806899,40.5720911 C4.71810954,40.5720911 4.77323843,40.5706337 4.83208212,40.5682904 C5.37409961,40.8356835 6.00830035,41 6.47549115,41 C7.04925615,41 6.76852336,40.7532108 6.42938392,40.3700532 C8.11565364,40.0744549 10.3269901,39.4783717 11.2366168,38.7474917 C11.7862824,39.325543 12.9354045,39.7292473 13.6701233,39.7292473 C14.6633174,39.7292473 13.0968266,38.9919661 13.0968266,38.0825383 C13.096889,37.173282 14.6633798,36.4360294 13.6701545,36.4360294 Z M2.68030731,38.1111151 C2.45098861,38.1111151 2.26524858,37.9410547 2.26524858,37.7311581 C2.26524858,37.5212616 2.45101983,37.3511726 2.68030731,37.3511726 C2.909626,37.3511726 3.09539725,37.521233 3.09539725,37.7311581 C3.09539725,37.9410832 2.909626,38.1111151 2.68030731,38.1111151 Z"/>
      <path fill="#CCDDF8" d="M.499893691 36C.223825289 36 0 36.2238017 0 36.4998785 0 36.7761679.223825289 37 .499893691 37 .776205085 37 1 36.7761679 1 36.4998785 1 36.2238017.776174711 36 .499893691 36zM1.50001989 34C1.22371614 34 1 34.2237161 1 34.4999801 1 34.7762839 1.22371614 35 1.50001989 35 1.77624408 35 2 34.7762839 2 34.4999801 2 34.2237161 1.77624408 34 1.50001989 34zM.499921027 32C.776190799 32 1 31.7761733 1 31.5000903 1 31.2238493.776168235 31 .499921027 31 .223831765 31 0 31.2238493 0 31.5000903 0 31.7761733.223831765 32 .499921027 32zM6.5001374 1C6.77627292 1 7 .776264133 7 .499842965 7 .223696608 6.77627292 0 6.5001374 0 6.22368783 0 6 .223696608 6 .499842965 6 .776264133 6.22368783 1 6.5001374 1z"/>
    </g>
    <g fill-rule="nonzero" transform="translate(378 299)">
      <path fill="#5E90DA" d="M11.7462727,13.740021 C11.1811044,13.740021 10.2969962,14.0285445 9.87434462,14.4412546 C9.3020204,14.0143174 8.0610561,13.6521882 6.91770436,13.4187771 C6.5018244,12.8853505 6.46566092,12.4739876 6.50434575,12.230003 C6.51467132,12.1648888 6.48722453,12.0995908 6.43091421,12.0547865 C6.37441178,12.0099413 6.29603357,11.990999 6.22046487,12.0040423 C5.47481531,12.1318826 5.06481852,12.6910487 4.85064718,13.1387654 C4.84137819,13.1386021 4.83050033,13.1381734 4.82159153,13.1381734 C3.66630537,13.1381734 2,13.9342207 2,14.9162621 C2,15.8983035 3.66630537,16.6943508 4.82159153,16.6943508 C4.86008426,16.6943508 4.9024911,16.6933098 4.94775547,16.691636 C5.36469201,16.882631 5.85253873,17 6.21191627,17 C6.65327396,17 6.43732566,16.823722 6.17644917,16.550038 C7.47357972,16.3388964 9.17460779,15.9131226 9.87432061,15.3910655 C10.2971403,15.8039593 11.1810803,16.0923195 11.7462487,16.0923195 C12.5102442,16.0923195 11.3052512,15.5656901 11.3052512,14.9160988 C11.3052992,14.26663 12.5102922,13.740021 11.7462727,13.740021 Z M3.29254408,14.9365108 C3.11614508,14.9365108 2.97326814,14.815039 2.97326814,14.665113 C2.97326814,14.5151869 3.1161691,14.3936947 3.29254408,14.3936947 C3.46894308,14.3936947 3.61184404,14.5151665 3.61184404,14.665113 C3.61184404,14.8150595 3.46894308,14.9365108 3.29254408,14.9365108 Z"/>
      <path fill="#CCDDF8" d="M.499893691 11C.223825289 11 0 11.2238017 0 11.4998785 0 11.7761679.223825289 12 .499893691 12 .776205085 12 1 11.7761679 1 11.4998785 1 11.2238017.776174711 11 .499893691 11zM2.50001989 12C2.22371614 12 2 12.2237161 2 12.4999801 2 12.7762839 2.22371614 13 2.50001989 13 2.77624408 13 3 12.7762839 3 12.4999801 3 12.2237161 2.77624408 12 2.50001989 12zM1.49992103 7C1.7761908 7 2 6.77617329 2 6.50009025 2 6.22384928 1.77616823 6 1.49992103 6 1.22383177 6 1 6.22384928 1 6.50009025 1 6.77617329 1.22383177 7 1.49992103 7zM3.5001374 1C3.77627292 1 4 .776264133 4 .499842965 4 .223696608 3.77627292 0 3.5001374 0 3.22368783 0 3 .223696608 3 .499842965 3 .776264133 3.22368783 1 3.5001374 1z"/>
    </g>
    <g fill-rule="nonzero" transform="translate(424 327)">
      <path fill="#5E90DA" d="M13.6701545,7.43602943 C12.9354357,7.43602943 11.7860951,7.83996236 11.236648,8.41775648 C10.4926265,7.82004434 8.87937293,7.3130635 7.39301567,6.98628791 C6.85237172,6.23949065 6.8053592,5.6635826 6.85564948,5.32200423 C6.86907271,5.23084427 6.83339189,5.13942712 6.76018847,5.07670107 C6.68673531,5.01391786 6.58484364,4.9873986 6.48660434,5.00565916 C5.51725991,5.1846356 4.98426407,5.96746819 4.70584133,6.5942715 C4.69379164,6.59404289 4.67965043,6.59344278 4.66806899,6.59344278 C3.16619698,6.59344278 1,7.70790901 1,9.08276696 C1,10.4576249 3.16619698,11.5720911 4.66806899,11.5720911 C4.71810954,11.5720911 4.77323843,11.5706337 4.83208212,11.5682904 C5.37409961,11.8356835 6.00830035,12 6.47549115,12 C7.04925615,12 6.76852336,11.7532108 6.42938392,11.3700532 C8.11565364,11.0744549 10.3269901,10.4783717 11.2366168,9.74749167 C11.7862824,10.325543 12.9354045,10.7292473 13.6701233,10.7292473 C14.6633174,10.7292473 13.0968266,9.99196611 13.0968266,9.08253835 C13.096889,8.17328204 14.6633798,7.43602943 13.6701545,7.43602943 Z M2.68030731,9.11111514 C2.45098861,9.11111514 2.26524858,8.94105466 2.26524858,8.73115814 C2.26524858,8.52126161 2.45101983,8.35117256 2.68030731,8.35117256 C2.909626,8.35117256 3.09539725,8.52123304 3.09539725,8.73115814 C3.09539725,8.94108324 2.909626,9.11111514 2.68030731,9.11111514 Z"/>
      <path fill="#CCDDF8" d="M.499893691 7C.223825289 7 0 7.22380171 0 7.4998785 0 7.77616791.223825289 8 .499893691 8 .776205085 8 1 7.77616791 1 7.4998785 1 7.22380171.776174711 7 .499893691 7zM1.50001989 5C1.22371614 5 1 5.22371614 1 5.49998011 1 5.77628386 1.22371614 6 1.50001989 6 1.77624408 6 2 5.77628386 2 5.49998011 2 5.22371614 1.77624408 5 1.50001989 5zM.499921027 3C.776190799 3 1 2.77617329 1 2.50009025 1 2.22384928.776168235 2 .499921027 2 .223831765 2 0 2.22384928 0 2.50009025 0 2.77617329.223831765 3 .499921027 3zM2.5001374 1C2.77627292 1 3 .776264133 3 .499842965 3 .223696608 2.77627292 0 2.5001374 0 2.22368783 0 2 .223696608 2 .499842965 2 .776264133 2.22368783 1 2.5001374 1z"/>
    </g>
    <g fill-rule="nonzero" transform="translate(419 302)">
      <path fill="#5E90DA" d="M10.7462727,24.740021 C10.1811044,24.740021 9.29699624,25.0285445 8.87434462,25.4412546 C8.3020204,25.0143174 7.0610561,24.6521882 5.91770436,24.4187771 C5.5018244,23.8853505 5.46566092,23.4739876 5.50434575,23.230003 C5.51467132,23.1648888 5.48722453,23.0995908 5.43091421,23.0547865 C5.37441178,23.0099413 5.29603357,22.990999 5.22046487,23.0040423 C4.47481531,23.1318826 4.06481852,23.6910487 3.85064718,24.1387654 C3.84137819,24.1386021 3.83050033,24.1381734 3.82159153,24.1381734 C2.66630537,24.1381734 1,24.9342207 1,25.9162621 C1,26.8983035 2.66630537,27.6943508 3.82159153,27.6943508 C3.86008426,27.6943508 3.9024911,27.6933098 3.94775547,27.691636 C4.36469201,27.882631 4.85253873,28 5.21191627,28 C5.65327396,28 5.43732566,27.823722 5.17644917,27.550038 C6.47357972,27.3388964 8.17460779,26.9131226 8.87432061,26.3910655 C9.29714031,26.8039593 10.1810803,27.0923195 10.7462487,27.0923195 C11.5102442,27.0923195 10.3052512,26.5656901 10.3052512,25.9160988 C10.3052992,25.26663 11.5102922,24.740021 10.7462727,24.740021 Z M2.29254408,25.9365108 C2.11614508,25.9365108 1.97326814,25.815039 1.97326814,25.665113 C1.97326814,25.5151869 2.1161691,25.3936947 2.29254408,25.3936947 C2.46894308,25.3936947 2.61184404,25.5151665 2.61184404,25.665113 C2.61184404,25.8150595 2.46894308,25.9365108 2.29254408,25.9365108 Z"/>
      <path fill="#CCDDF8" d="M.499893691 24C.223825289 24 0 24.2238017 0 24.4998785 0 24.7761679.223825289 25 .499893691 25 .776205085 25 1 24.7761679 1 24.4998785 1 24.2238017.776174711 24 .499893691 24zM7.50001989 18C7.22371614 18 7 18.2237161 7 18.4999801 7 18.7762839 7.22371614 19 7.50001989 19 7.77624408 19 8 18.7762839 8 18.4999801 8 18.2237161 7.77624408 18 7.50001989 18zM.499921027 21C.776190799 21 1 20.7761733 1 20.5000903 1 20.2238493.776168235 20 .499921027 20 .223831765 20 0 20.2238493 0 20.5000903 0 20.7761733.223831765 21 .499921027 21zM2.5001374 1C2.77627292 1 3 .776264133 3 .499842965 3 .223696608 2.77627292 0 2.5001374 0 2.22368783 0 2 .223696608 2 .499842965 2 .776264133 2.22368783 1 2.5001374 1z"/>
    </g>
    <g fill-rule="nonzero" opacity=".2" transform="translate(406 314)">
      <path fill="#5E90DA" d="M12.7970182,33.740021 C12.3448835,33.740021 11.637597,34.0285445 11.2994757,34.4412546 C10.8416163,34.0143174 9.84884488,33.6521882 8.93416349,33.4187771 C8.60145952,32.8853505 8.57252874,32.4739876 8.6034766,32.230003 C8.61173705,32.1648888 8.58977963,32.0995908 8.54473137,32.0547865 C8.49952942,32.0099413 8.43682686,31.990999 8.3763719,32.0040423 C7.77985225,32.1318826 7.45185481,32.6910487 7.28051774,33.1387654 C7.27310255,33.1386021 7.26440026,33.1381734 7.25727322,33.1381734 C6.33304429,33.1381734 5,33.9342207 5,34.9162621 C5,35.8983035 6.33304429,36.6943508 7.25727322,36.6943508 C7.28806741,36.6943508 7.32199288,36.6933098 7.35820438,36.691636 C7.69175361,36.882631 8.08203099,37 8.36953302,37 C8.72261917,37 8.54986053,36.823722 8.34115934,36.550038 C9.37886378,36.3388964 10.7396862,35.9131226 11.2994565,35.3910655 C11.6377123,35.8039593 12.3448643,36.0923195 12.796999,36.0923195 C13.4081953,36.0923195 12.444201,35.5656901 12.444201,34.9160988 C12.4442394,34.26663 13.4082337,33.740021 12.7970182,33.740021 Z M6.03403527,34.9365108 C5.89291607,34.9365108 5.77861451,34.815039 5.77861451,34.665113 C5.77861451,34.5151869 5.89293528,34.3936947 6.03403527,34.3936947 C6.17515446,34.3936947 6.28947523,34.5151665 6.28947523,34.665113 C6.28947523,34.8150595 6.17515446,34.9365108 6.03403527,34.9365108 Z"/>
      <path fill="#CCDDF8" d="M4.49989369 34C4.22382529 34 4 34.2238017 4 34.4998785 4 34.7761679 4.22382529 35 4.49989369 35 4.77620508 35 5 34.7761679 5 34.4998785 5 34.2238017 4.77617471 34 4.49989369 34zM1.50001989 3C1.22371614 3 1 3.22371614 1 3.49998011 1 3.77628386 1.22371614 4 1.50001989 4 1.77624408 4 2 3.77628386 2 3.49998011 2 3.22371614 1.77624408 3 1.50001989 3zM.499921027 2C.776190799 2 1 1.77617329 1 1.50009025 1 1.22384928.776168235 1 .499921027 1 .223831765 1 0 1.22384928 0 1.50009025 0 1.77617329.223831765 2 .499921027 2zM1.5001374 1C1.77627292 1 2 .776264133 2 .499842965 2 .223696608 1.77627292 0 1.5001374 0 1.22368783 0 1 .223696608 1 .499842965 1 .776264133 1.22368783 1 1.5001374 1z"/>
    </g>
    <g fill-rule="nonzero" opacity=".2" transform="translate(414 310)">
      <path fill="#5E90DA" d="M7.84776363,5.39201682 C7.50866262,5.39201682 6.97819774,5.62283563 6.72460677,5.9530037 C6.38121224,5.61145391 5.63663366,5.32175057 4.95062262,5.13502166 C4.70109464,4.70828037 4.67939655,4.37919006 4.70260745,4.18400242 C4.70880279,4.13191101 4.69233472,4.07967264 4.65854853,4.04382918 C4.62464707,4.00795306 4.57762014,3.9927992 4.53227892,4.00323381 C4.08488919,4.10550606 3.83889111,4.55283897 3.71038831,4.91101229 C3.70482691,4.91088165 3.6983002,4.91053873 3.69295492,4.91053873 C2.99978322,4.91053873 2,5.54737658 2,6.33300969 C2,7.1186428 2.99978322,7.75548065 3.69295492,7.75548065 C3.71605056,7.75548065 3.74149466,7.75464785 3.76865328,7.75330882 C4.01881521,7.90610483 4.31152324,8 4.52714976,8 C4.79196437,8 4.6623954,7.85897762 4.5058695,7.64003042 C5.28414783,7.4711171 6.30476467,7.13049809 6.72459237,6.71285239 C6.97828419,7.04316742 7.50864821,7.2738556 7.84774923,7.2738556 C8.30614649,7.2738556 7.58315073,6.85255207 7.58315073,6.33287905 C7.58317955,5.81330402 8.30617531,5.39201682 7.84776363,5.39201682 Z M3.19156557,6.4342529 C3.08572617,6.4342529 3,6.33707549 3,6.21713462 C3,6.09719375 3.08574057,6 3.19156557,6 C3.29740496,6 3.38314554,6.09717742 3.38314554,6.21713462 C3.38314554,6.33709182 3.29740496,6.4342529 3.19156557,6.4342529 Z"/>
      <path fill="#CCDDF8" d="M.499893691 5C.223825289 5 0 5.22380171 0 5.4998785 0 5.77616791.223825289 6 .499893691 6 .776205085 6 1 5.77616791 1 5.4998785 1 5.22380171.776174711 5 .499893691 5zM3.50001989 17C3.22371614 17 3 17.2237161 3 17.4999801 3 17.7762839 3.22371614 18 3.50001989 18 3.77624408 18 4 17.7762839 4 17.4999801 4 17.2237161 3.77624408 17 3.50001989 17zM.499921027 2C.776190799 2 1 1.77617329 1 1.50009025 1 1.22384928.776168235 1 .499921027 1 .223831765 1 0 1.22384928 0 1.50009025 0 1.77617329.223831765 2 .499921027 2zM1.5001374 1C1.77627292 1 2 .776264133 2 .499842965 2 .223696608 1.77627292 0 1.5001374 0 1.22368783 0 1 .223696608 1 .499842965 1 .776264133 1.22368783 1 1.5001374 1z"/>
    </g>
    <g fill="url(#extreme-sports_illustration--b)" transform="translate(58 89)">
      <polygon points="107.977 124.834 176.541 47.49 205.342 82.215 253.521 11.923 276 28.126 289.151 43.626 316.468 11.923 351.843 .275 377.482 50.909 385.02 78.186 404.023 92.565 465.132 71.004 475.72 34.56 521.341 7.041 547.286 34.56 565.913 106.947 562.004 197.979 137.212 190.441"/>
      <polygon points="0 135.882 68.564 67.037 97.365 97.946 176.193 46.582 188.852 62.285 244.726 24.652 253.695 11.682 269.798 113 277.938 58.489 290.641 43.254 340.121 28.463 343.687 18.316 349.052 13.166 351.764 .545 377.241 50.784 385.402 77.675 403.661 92.262 406.679 120.638 465.303 70.315 476.247 34.408 521.531 6.961 510.383 81.541 454.027 200.99 29.234 194.28"/>
    </g>
    <g fill="url(#extreme-sports_illustration--c)" transform="translate(16 -4)">
      <path d="M101.747819,104.647399 C99.5365821,107.414888 96.1159729,109.190408 92.2768183,109.190408 C90.1933155,109.190408 88.2330833,108.66748 86.5225246,107.746862 C82.1738219,112.883917 75.6472405,116.149955 68.3507524,116.149955 C60.6774609,116.149955 53.855648,112.537879 49.5228748,106.936225 C46.4468872,108.381721 43.0067935,109.190408 39.3760671,109.190408 C26.2832951,109.190408 15.6695064,98.674263 15.6695064,85.7019403 C15.6695064,72.7296175 26.2832951,62.2134722 39.3760671,62.2134722 C40.7248907,62.2134722 42.0474043,62.3250823 43.3347134,62.53949 C43.3296892,62.358929 43.3271605,62.1777503 43.3271605,61.9959863 C43.3271605,51.3058315 52.0737087,42.6397487 62.8631226,42.6397487 C69.772106,42.6397487 75.8434205,46.1932414 79.3168648,51.5562189 C81.9042686,50.3028131 84.8125709,49.5992948 87.8867144,49.5992948 C96.9341993,49.5992948 104.545203,55.6930199 106.766939,63.964047 C109.541201,62.8356615 112.579203,62.2134722 115.763874,62.2134722 C124.709526,62.2134722 132.497909,67.1227475 136.534315,74.3704611 C137.540216,74.1012981 138.598153,73.9577062 139.68994,73.9577062 C146.357555,73.9577062 151.762725,79.3131506 151.762725,85.9194261 C151.762725,92.5257016 146.357555,97.881146 139.68994,97.881146 C138.52052,97.881146 137.389934,97.7164074 136.320533,97.4090752 C132.226913,104.450248 124.554095,109.190408 115.763874,109.190408 C110.519969,109.190408 105.673732,107.503456 101.747819,104.647399 Z" opacity=".151" transform="rotate(-5 83.716 79.395)"/>
      <path d="M154.938555,66.7269415 C154.124898,67.7452803 152.866234,68.3986093 151.45356,68.3986093 C150.686904,68.3986093 149.965608,68.2061899 149.336182,67.8674349 C147.736013,69.7576907 145.33446,70.9594776 142.649609,70.9594776 C139.826107,70.9594776 137.31592,69.630361 135.721612,67.5691491 C134.589757,68.101041 133.323923,68.3986093 131.987943,68.3986093 C127.170264,68.3986093 123.264762,64.5290376 123.264762,59.7556788 C123.264762,54.9823201 127.170264,51.1127484 131.987943,51.1127484 C132.484263,51.1127484 132.970902,51.153817 133.444586,51.2327115 C133.442737,51.1662714 133.441807,51.099604 133.441807,51.0327212 C133.441807,47.0991201 136.660229,43.9103063 140.630354,43.9103063 C143.172617,43.9103063 145.406647,45.2178667 146.684753,47.1912538 C147.636826,46.7300446 148.706979,46.4711746 149.838156,46.4711746 C153.167313,46.4711746 155.967894,48.7134512 156.785415,51.7568983 C157.806246,51.3416921 158.924124,51.1127484 160.095971,51.1127484 C163.387656,51.1127484 166.253507,52.9191891 167.738763,55.5860929 C168.108899,55.4870504 168.498183,55.4342136 168.899922,55.4342136 C171.35337,55.4342136 173.342282,57.4048289 173.342282,59.835706 C173.342282,62.2665831 171.35337,64.2371984 168.899922,64.2371984 C168.469616,64.2371984 168.053601,64.1765804 167.660099,64.0634929 C166.15379,66.6543971 163.330463,68.3986093 160.095971,68.3986093 C158.166398,68.3986093 156.383153,67.77787 154.938555,66.7269415 Z" opacity=".151" transform="rotate(12 148.304 57.435)"/>
      <path d="M386.608578,95.2662592 C383.812954,98.7651423 379.488344,101.009898 374.634575,101.009898 C372.000443,101.009898 369.522159,100.348769 367.359533,99.1848502 C361.861553,105.67953 353.610123,109.808717 344.385314,109.808717 C334.684121,109.808717 326.059435,105.242041 320.581594,98.1599781 C316.692682,99.987491 312.343439,101.009898 307.753182,101.009898 C291.200244,101.009898 277.781437,87.7145397 277.781437,71.3138837 C277.781437,54.9132278 291.200244,41.6178692 307.753182,41.6178692 C309.458473,41.6178692 311.130502,41.7589758 312.758022,42.0300472 C312.751669,41.8017675 312.748473,41.5727067 312.748473,41.3429061 C312.748473,27.8275508 323.806564,16.8711905 337.44741,16.8711905 C346.182304,16.8711905 353.858149,21.3638023 358.249557,28.1441107 C361.520762,26.5594541 365.197672,25.6700096 369.084252,25.6700096 C380.522812,25.6700096 390.145256,33.3741879 392.954154,43.8310869 C396.461599,42.4044911 400.302486,41.6178692 404.328804,41.6178692 C415.638618,41.6178692 425.48532,47.8245707 430.58847,56.9877145 C431.86021,56.6474169 433.19774,56.4658765 434.578065,56.4658765 C443.007801,56.4658765 449.841453,63.2366609 449.841453,71.5888468 C449.841453,79.9410327 443.007801,86.7118172 434.578065,86.7118172 C433.09959,86.7118172 431.670212,86.5035414 430.318189,86.1149872 C425.142705,95.0170058 415.44211,101.009898 404.328804,101.009898 C397.699037,101.009898 391.572033,98.8771165 386.608578,95.2662592 Z" opacity=".151" transform="rotate(12 363.811 63.34)"/>
      <path d="M244.184544,30.1328863 C243.626094,30.8318177 242.762217,31.2802267 241.792636,31.2802267 C241.266445,31.2802267 240.771387,31.1481606 240.339385,30.9156579 C239.241116,32.213025 237.592824,33.0378651 235.75009,33.0378651 C233.812195,33.0378651 232.089341,32.1256329 230.995096,30.7109311 C230.218253,31.0759922 229.349455,31.2802267 228.432512,31.2802267 C225.125923,31.2802267 222.445403,28.6243665 222.445403,25.3481969 C222.445403,22.0720273 225.125923,19.4161672 228.432512,19.4161672 C228.773159,19.4161672 229.10716,19.4443544 229.432271,19.4985032 C229.431002,19.4529024 229.430364,19.4071456 229.430364,19.361241 C229.430364,16.6614345 231.639311,14.472809 234.364185,14.472809 C236.109054,14.472809 237.642369,15.3702462 238.51959,16.7246701 C239.173041,16.4081215 239.907534,16.2304475 240.683912,16.2304475 C242.968861,16.2304475 244.891025,17.7694222 245.452126,19.8582761 C246.152768,19.5733015 246.920018,19.4161672 247.724309,19.4161672 C249.98354,19.4161672 251.950501,20.6560082 252.969899,22.4864236 C253.22394,22.4184463 253.491122,22.382182 253.766854,22.382182 C255.450765,22.382182 256.815845,23.7347034 256.815845,25.4031231 C256.815845,27.0715428 255.450765,28.4240642 253.766854,28.4240642 C253.471516,28.4240642 253.185986,28.3824594 252.915908,28.3048424 C251.882061,30.0830958 249.944285,31.2802267 247.724309,31.2802267 C246.399957,31.2802267 245.176036,30.8541855 244.184544,30.1328863 Z" opacity=".151" transform="rotate(12 239.63 23.755)"/>
      <path d="M602.334313,91.8968815 C601.644686,92.7599889 600.577887,93.3137272 599.380555,93.3137272 C598.730765,93.3137272 598.11942,93.1506394 597.585942,92.8635228 C596.229695,94.4656359 594.194226,95.4842274 591.918642,95.4842274 C589.525543,95.4842274 587.397999,94.3577158 586.04672,92.6107065 C585.0874,93.061519 584.014525,93.3137272 582.882196,93.3137272 C578.798904,93.3137272 575.488741,90.0340169 575.488741,85.9882892 C575.488741,81.9425614 578.798904,78.6628511 582.882196,78.6628511 C583.302859,78.6628511 583.715317,78.6976594 584.116795,78.7645275 C584.115228,78.7082153 584.114439,78.6517104 584.114439,78.5950229 C584.114439,75.2610436 586.842258,72.5583193 590.207194,72.5583193 C592.361925,72.5583193 594.255409,73.6665607 595.338685,75.3391329 C596.145629,74.9482284 597.052652,74.7288195 598.011397,74.7288195 C600.833071,74.7288195 603.206743,76.6292928 603.899645,79.2088095 C604.764864,78.8568956 605.712337,78.6628511 606.705553,78.6628511 C609.495468,78.6628511 611.92446,80.1939255 613.18331,82.4542976 C613.497024,82.3703527 613.826967,82.3255701 614.167466,82.3255701 C616.246921,82.3255701 617.932652,83.995793 617.932652,86.0561173 C617.932652,88.1164416 616.246921,89.7866644 614.167466,89.7866644 C613.802755,89.7866644 613.450155,89.7352868 613.116637,89.6394379 C611.839944,91.8353954 609.446993,93.3137272 606.705553,93.3137272 C605.070116,93.3137272 603.558702,92.7876108 602.334313,91.8968815 Z" opacity=".151" transform="rotate(12 596.71 84.021)"/>
      <path d="M469.01274,81.2653589 C466.787801,84.7155771 462.910678,87 458.5,87 C456.086258,87 453.832305,86.3158558 451.921478,85.1309011 C447.525927,89.9593596 441.125608,93 434,93 C426.066908,93 419.032801,89.2311734 414.663289,83.4223454 C411.976012,84.4412158 409.05465,85 406,85 C392.745166,85 382,74.4786916 382,61.5 C382,48.5213084 392.745166,38 406,38 C407.016856,38 408.018941,38.0619213 409.002539,38.182123 C409.172316,27.5591775 417.836607,19 428.5,19 C435.248989,19 441.197182,22.428614 444.697796,27.639059 C447.577753,25.9611629 450.926631,25 454.5,25 C463.564602,25 471.184624,31.1849854 473.370123,39.5650148 C476.048196,38.5541637 478.958005,38 482,38 C491.086882,38 498.994266,42.9448256 503.068696,50.2363021 C503.855145,50.0812694 504.668082,50 505.5,50 C512.403559,50 518,55.5964406 518,62.5 C518,69.4035594 512.403559,75 505.5,75 C504.28326,75 503.107123,74.8261553 501.995074,74.5019494 C497.694699,80.8299412 490.344696,85 482,85 C477.214618,85 472.756351,83.6286308 469.01274,81.2653589 Z" opacity=".151"/>
      <path d="M38.0104904,119.861936 C37.0162109,121.154579 35.3667077,122 33.5,122 C32.7470734,122 32.0294831,121.862461 31.3759715,121.613513 C29.4519685,123.690172 26.6365958,125 23.5,125 C20.0620788,125 17.0100636,123.426419 15.0947099,120.994263 C13.7068992,121.638513 12.1477753,122 10.5,122 C4.70101013,122 0,117.522847 0,112 C0,106.477153 4.70101013,102 10.5,102 C11.0166099,102 11.5245058,102.035532 12.0211404,102.104171 C12.0071256,101.904602 12,101.703133 12,101.5 C12,96.8055796 15.8055796,93 20.5,93 C23.5059974,93 26.1475454,94.5603932 27.6588404,96.9153761 C28.8125232,96.3299458 30.1177301,96 31.5,96 C35.6900672,96 39.1720224,99.031788 39.8718376,103.021336 C41.268027,102.367326 42.8389719,102 44.5,102 C48.4132235,102 51.8264597,104.038762 53.6325373,107.061836 C53.9151067,107.021137 54.2048381,107 54.5,107 C57.5375661,107 60,109.238576 60,112 C60,114.761424 57.5375661,117 54.5,117 C54.2048381,117 53.9151067,116.978863 53.6325373,116.938164 C51.8264597,119.961238 48.4132235,122 44.5,122 C42.050377,122 39.7966782,121.201094 38.0104904,119.861936 Z" opacity=".169"/>
    </g>
    <g stroke="#979797" stroke-linecap="round" transform="translate(489 37)">
      <g transform="translate(19 50)">
        <path d="M.392857143 2.475C.392857143 2.475 1.05525208.4125 2.94642857.4125 4.83760507.4125 5.5 2.475 5.5 2.475M5.54728481 2.47625885C5.54728481 2.47625885 6.16239493 9.35317079e-17 8.05357143 0 9.94474792 0 10.6071429 2.0625 10.6071429 2.0625"/>
      </g>
      <g opacity=".456" transform="translate(98 41)">
        <path d="M.25 2.475C.25 2.475.671524048.4125 1.875.4125 3.07847595.4125 3.5 2.475 3.5 2.475M3.53009033 2.47625885C3.53009033 2.47625885 3.92152405 9.35317079e-17 5.125 0 6.32847595 0 6.75 2.0625 6.75 2.0625"/>
      </g>
      <g opacity=".353" transform="translate(89 1)">
        <path d="M.25 2.475C.25 2.475.671524048.4125 1.875.4125 3.07847595.4125 3.5 2.475 3.5 2.475M3.53009033 2.47625885C3.53009033 2.47625885 3.92152405 9.35317079e-17 5.125 0 6.32847595 0 6.75 2.0625 6.75 2.0625"/>
      </g>
      <path d="M0,60 C0,60 1,63 2,63 C3,63 4,60 4,60" opacity=".644"/>
      <path d="M64,2 C64,2 66.2545985,0 68.5045985,0 C70.7545985,0 73,2 73,2" opacity=".549"/>
    </g>
    <g stroke="#979797" stroke-linecap="round" transform="translate(244 74)">
      <g transform="translate(19 50)">
        <path d="M.392857143 2.475C.392857143 2.475 1.05525208.4125 2.94642857.4125 4.83760507.4125 5.5 2.475 5.5 2.475M5.54728481 2.47625885C5.54728481 2.47625885 6.16239493 9.35317079e-17 8.05357143 0 9.94474792 0 10.6071429 2.0625 10.6071429 2.0625"/>
      </g>
      <g opacity=".456" transform="translate(98 41)">
        <path d="M.25 2.475C.25 2.475.671524048.4125 1.875.4125 3.07847595.4125 3.5 2.475 3.5 2.475M3.53009033 2.47625885C3.53009033 2.47625885 3.92152405 9.35317079e-17 5.125 0 6.32847595 0 6.75 2.0625 6.75 2.0625"/>
      </g>
      <g opacity=".353" transform="translate(89 1)">
        <path d="M.25 2.475C.25 2.475.671524048.4125 1.875.4125 3.07847595.4125 3.5 2.475 3.5 2.475M3.53009033 2.47625885C3.53009033 2.47625885 3.92152405 9.35317079e-17 5.125 0 6.32847595 0 6.75 2.0625 6.75 2.0625"/>
      </g>
      <path d="M0,60 C0,60 1,63 2,63 C3,63 4,60 4,60" opacity=".644"/>
      <path d="M64,2 C64,2 66.2545985,0 68.5045985,0 C70.7545985,0 73,2 73,2" opacity=".549"/>
    </g>
    <path fill="url(#extreme-sports_illustration--d)" d="M393.433719,258.450546 C397.108785,257.508389 431.867804,245.34632 443.217794,250.074097 C448.59271,252.312989 475,249.026137 475,244.698743 C475,240.895329 444.790754,237.02296 426.822064,237.02296 C411.903752,237.02296 405.81402,238.166574 395.661675,237.02296 C381.411233,235.417715 382.419266,235.664588 375.645964,238.026928 C370.006479,239.993824 347.901994,250.715618 344.337341,253.373631 C340.772689,256.031645 366.021863,265.47798 393.433719,258.450546 Z" opacity=".3"/>
    <path fill="url(#extreme-sports_illustration--d)" d="M512.150825,267.450546 C513.946276,266.508389 530.927782,254.34632 536.472815,259.074097 C539.098729,261.312989 552,258.026137 552,253.698743 C552,249.895329 537.241284,246.02296 528.462688,246.02296 C521.174352,246.02296 518.199216,247.166574 513.239292,246.02296 C506.277243,244.417715 506.769718,244.664588 503.460623,247.026928 C500.705456,248.993824 489.906318,259.715618 488.164808,262.373631 C486.423298,265.031645 498.758773,274.47798 512.150825,267.450546 Z" opacity=".2"/>
    <path fill="url(#extreme-sports_illustration--e)" d="M206.150726,261.450546 C209.433037,260.508389 240.477351,248.34632 250.614366,253.074097 C255.414863,255.312989 279,252.026137 279,247.698743 C279,243.895329 252.019223,240.02296 235.970851,240.02296 C222.646863,240.02296 217.207941,241.166574 208.14058,240.02296 C195.413086,238.417715 196.31339,238.664588 190.263952,241.026928 C185.227161,242.993824 165.484987,253.715618 162.301289,256.373631 C159.117592,259.031645 181.668381,268.47798 206.150726,261.450546 Z" opacity=".3"/>
    <g opacity=".3" transform="translate(507 152)">
      <path fill="#23D291" d="M30.6440582,0 C16.7516838,38.5991555 6.86431171,66.4650766 0.981941935,83.5977633 C21.700966,79.0865778 36.600491,79.0865778 51.9819419,83.5977633 C44.4963953,55.9509834 37.3837674,28.0850623 30.6440582,0 Z"/>
      <path stroke="#585858" stroke-linecap="round" d="M28.5,39.5 L24.5,44.5"/>
      <path stroke="#585858" stroke-linecap="round" d="M32.5,50.5 L28.5,55.5" transform="matrix(-1 0 0 1 61 0)"/>
      <path stroke="#585858" stroke-linecap="round" d="M26.5 63.5L22.5 68.5M29.5 30.5L25.5 80.5"/>
    </g>
    <g fill="#D0F3E6" transform="translate(488 186)">
      <path d="M15.7034733 0C8.34868688 20.7776133 3.11419576 35.7776133 0 45 10.9688951 42.5716653 18.8568789 42.5716653 27 45 23.0370635 30.1179619 19.2715546 15.1179619 15.7034733 0zM94.7034733 6C87.3486869 26.7776133 82.1141958 41.7776133 79 51 89.9688951 48.5716653 97.8568789 48.5716653 106 51 102.037064 36.1179619 98.2715546 21.1179619 94.7034733 6z"/>
    </g>
    <g transform="translate(545 178)">
      <path fill="#23D291" d="M22.5195746,0 C12.146138,26.6852319 4.82561888,46.2785766 0.558017277,58.7800341 C16.4270463,61.9682049 22.5195746,54.9261423 38,61 C32.5693093,40.8265706 27.4091675,20.4932373 22.5195746,0 Z"/>
      <path stroke="#585858" stroke-linecap="round" d="M20.6,29.3333333 L17.4,32.6666667"/>
      <path stroke="#585858" stroke-linecap="round" d="M23.6,36.3333333 L20.4,39.6666667" transform="matrix(-1 0 0 1 44 0)"/>
      <path stroke="#585858" stroke-linecap="round" d="M19.6 46.3333333L16.4 49.6666667M21.6 22.3627451L18.4 58.6372549"/>
    </g>
    <g transform="translate(247 168)">
      <path fill="#A8EBD2" d="M21.5195746,0 C11.4407931,28.1652091 4.2676016,48.4985425 0,61 C15.0314489,57.7082574 25.8409081,57.7082574 37,61 C31.5693093,40.8265706 26.4091675,20.4932373 21.5195746,0 Z"/>
      <path stroke="#585858" stroke-linecap="round" stroke-opacity=".384" d="M19.6,28.3333333 L16.4,31.6666667"/>
      <path stroke="#585858" stroke-linecap="round" stroke-opacity=".384" d="M22.6,36.3333333 L19.4,39.6666667" transform="matrix(-1 0 0 1 42 0)"/>
      <path stroke="#585858" stroke-linecap="round" stroke-opacity=".384" d="M18.6 46.3333333L15.4 49.6666667M20.6 22.3627451L17.4 58.6372549"/>
    </g>
    <g opacity=".4" transform="translate(328 141)">
      <path fill="#23D291" d="M30.5054557,0 C16.6130812,38.5991555 6.72570913,66.4650766 0.843339355,83.5977633 C18.4444389,78.5756669 30.5054557,78.5756669 51.8433394,83.5977633 C44.3577927,55.9509834 37.2451648,28.0850623 30.5054557,0 Z"/>
      <path stroke="#585858" stroke-linecap="round" d="M28.5 31.5L24.5 81.5M27.5 37.5L23.5 42.5"/>
      <path stroke="#585858" stroke-linecap="round" d="M31.5,48.5 L27.5,53.5" transform="matrix(-1 0 0 1 59 0)"/>
      <path stroke="#585858" stroke-linecap="round" d="M25.5,61.5 L21.5,66.5"/>
    </g>
    <g opacity=".8" transform="translate(349 120)">
      <path fill="#23D291" d="M35.4782175,0 C18.8618481,46.172474 7.03577562,79.5058073 0,100 C24.7815779,94.6037007 42.6025783,94.6037007 61,100 C52.0466991,66.9288043 43.5394383,33.595471 35.4782175,0 Z"/>
      <path stroke="#585858" stroke-linecap="round" d="M33.4,46.5833333 L28.6,52.4166667"/>
      <path stroke="#585858" stroke-linecap="round" d="M37.4,60.5833333 L32.6,66.4166667" transform="matrix(-1 0 0 1 70 0)"/>
      <path stroke="#585858" stroke-linecap="round" d="M30.4 75.5833333L25.6 81.4166667M34.4 36.5980392L29.6 96.4019608"/>
    </g>
    <g opacity=".8" transform="translate(386 125)">
      <path fill="#23D291" d="M35.4782175,0 C18.8618481,46.172474 7.03577562,79.5058073 0,100 C24.7815779,94.6037007 42.6025783,94.6037007 61,100 C52.0466991,66.9288043 43.5394383,33.595471 35.4782175,0 Z"/>
      <path stroke="#585858" stroke-linecap="round" d="M33.4,46.5833333 L28.6,52.4166667"/>
      <path stroke="#585858" stroke-linecap="round" d="M37.4,60.5833333 L32.6,66.4166667" transform="matrix(-1 0 0 1 70 0)"/>
      <path stroke="#585858" stroke-linecap="round" d="M30.4 75.5833333L25.6 81.4166667M34.4 36.5980392L29.6 96.4019608"/>
    </g>
    <g opacity=".3" transform="translate(417 145)">
      <path fill="#23D291" d="M28.382574,0 C15.0894785,36.9379792 5.62862049,63.6046459 0,80 C19.8252623,75.6829606 34.0820626,75.6829606 48.8,80 C41.6373593,53.5430435 34.8315506,26.8763768 28.382574,0 Z"/>
      <path stroke="#585858" stroke-linecap="round" d="M26.72,37.2666667 L22.88,41.9333333"/>
      <path stroke="#585858" stroke-linecap="round" d="M29.92,48.4666667 L26.08,53.1333333" transform="matrix(-1 0 0 1 56 0)"/>
      <path stroke="#585858" stroke-linecap="round" d="M24.32 60.4666667L20.48 65.1333333M27.52 29.2784314L23.68 77.1215686"/>
    </g>
    <path fill="#23D291" d="M264.49769,218.639408 C264.309825,218.06836 264.208355,217.459352 264.208355,216.827141 C264.208355,213.565505 266.909097,210.921428 270.240631,210.921428 C271.494069,210.921428 272.658216,211.295703 273.622835,211.936327 C274.686305,208.500822 277.946092,206 281.802494,206 C286.35685,206 290.07909,209.487964 290.334262,213.884224 C291.176796,213.26017 292.226421,212.889999 293.364357,212.889999 C294.434553,212.889999 295.42664,213.21741 296.241811,213.775501 C297.298417,212.064898 299.216506,210.921428 301.407392,210.921428 C302.772409,210.921428 304.031533,211.365304 305.042383,212.113667 C306.240049,210.779315 307.996125,209.937142 309.953116,209.937142 C312.266724,209.937142 314.29952,211.114214 315.460797,212.890044 C315.468095,212.890014 315.475397,212.889999 315.482703,212.889999 C316.924223,212.889999 318.224027,213.484029 319.140651,214.435692 L346,229.872225 C331.601223,228.135219 317.817909,228.504648 304.650058,230.98051 C284.898283,234.694303 275.273105,227.066942 259,227.066942 C262.203635,225.280845 264.036199,222.471668 264.49769,218.639408 Z"/>
    <path fill="#C4FBE7" d="M47.2022042,216.686475 C47.1192041,216.430128 47.0743849,216.156819 47.0743849,215.87313 C47.0743849,214.405118 48.2745423,213.215059 49.7550115,213.215059 C50.3120148,213.215059 50.8293393,213.383515 51.2579971,213.67185 C51.7305826,212.125581 53.1791686,211 54.892879,211 C56.9167464,211 58.5708376,212.569879 58.6842311,214.548568 C59.0586369,214.267691 59.5250699,214.101083 60.0307465,214.101083 C60.506321,214.101083 60.947185,214.248446 61.3094314,214.499634 C61.7789664,213.729718 62.6313283,213.215059 63.6049152,213.215059 C64.2115026,213.215059 64.7710326,213.414841 65.220235,213.751668 C65.7524544,213.151097 66.5328204,212.772047 67.4024694,212.772047 C68.4305917,212.772047 69.3339268,213.301829 69.8499761,214.101103 C69.8532192,214.10109 69.856464,214.101083 69.8597104,214.101083 C70.5002942,214.101083 71.077902,214.368447 71.4852317,214.796776 L97,216.682309 C81.7090716,218.653584 71.074565,220.357979 65.0964802,221.795492 C56.129353,223.951761 50.5907332,226.177217 41,229 C42.4251525,228.195247 44.4925539,224.090739 47.2022042,216.686475 Z"/>
    <path fill="#23D291" d="M217.470686,210.820947 C192.128668,208.127547 175.418335,206.906723 167.339687,207.158475 C155.027153,207.542166 140.467031,207.566205 130,208.984594 C131.3379,208.212115 138.923133,205.454174 152.7557,200.710771 C152.40985,200.320253 152.199448,199.803916 152.199448,199.237754 C152.199448,198.019665 153.173374,197.032209 154.374772,197.032209 C154.806214,197.032209 155.208319,197.159555 155.546518,197.379197 C156.008506,196.567653 156.873281,196.021472 157.863876,196.021472 C158.486817,196.021472 159.060001,196.237464 159.514551,196.599613 C160.023437,195.087492 161.436619,194 163.100318,194 C165.119007,194 166.768866,195.601088 166.881969,197.619114 C167.255417,197.332653 167.720657,197.162732 168.225039,197.162732 C168.699397,197.162732 169.139133,197.313025 169.500452,197.569206 C169.968786,196.783984 170.818967,196.259094 171.790063,196.259094 C172.395098,196.259094 172.953196,196.462848 173.401249,196.806371 C173.932107,196.19386 174.710476,195.807275 175.5779,195.807275 C176.563044,195.807275 177.433321,196.305909 177.95661,197.067828 C178.085207,197.044425 178.217632,197.032209 178.352871,197.032209 C179.002441,197.032209 179.587088,197.314031 179.994359,197.763659 C180.480169,197.30957 181.129125,197.032209 181.841975,197.032209 C182.468222,197.032209 183.045156,197.24627 183.505483,197.606164 C184.024565,197.244126 184.653413,197.032209 185.331079,197.032209 C186.984687,197.032209 188.347617,198.294034 188.534307,199.919817 C188.931847,199.393271 189.558158,199.053681 190.262698,199.053681 C190.694139,199.053681 191.096245,199.181028 191.434444,199.40067 C191.896432,198.589125 192.761207,198.042945 193.751802,198.042945 C194.374743,198.042945 194.947927,198.258937 195.402477,198.621085 C195.911363,197.108964 197.324545,196.021472 198.988244,196.021472 C201.006933,196.021472 202.656792,197.622561 202.769895,199.640586 C203.143343,199.354125 203.608582,199.184204 204.112965,199.184204 C204.587323,199.184204 205.027059,199.334497 205.388378,199.590679 C205.856712,198.805457 206.706893,198.280567 207.677988,198.280567 C208.283024,198.280567 208.841122,198.484321 209.289175,198.827843 C209.820033,198.215333 210.598402,197.828748 211.465826,197.828748 C212.450969,197.828748 213.321247,198.327381 213.844536,199.0893 C213.973132,199.065897 214.105558,199.053681 214.240797,199.053681 C214.890366,199.053681 215.475014,199.335504 215.882285,199.785131 C216.368094,199.331042 217.017051,199.053681 217.729901,199.053681 C218.356147,199.053681 218.933082,199.267743 219.393409,199.627636 C219.91249,199.265598 220.541339,199.053681 221.219005,199.053681 C223.000138,199.053681 224.444031,200.517634 224.444031,202.323511 C224.444031,202.597533 224.410786,202.863681 224.348163,203.118037 L265,218 C243.779942,214.62631 227.936837,212.233293 217.470686,210.820947 Z" opacity=".227"/>
    <path fill="#23D291" d="M485.222333 228.208753C485.078049 227.747522 485.000118 227.25563 485.000118 226.744998 485.000118 224.110601 487.074341 221.974999 489.633024 221.974999 490.595688 221.974999 491.489776 222.277298 492.230622 222.794726 493.047388 220.019894 495.550968 218 498.51276 218 502.010594 218 504.869347 220.817202 505.065324 224.368027 505.712407 223.863983 506.518539 223.564999 507.392496 223.564999 508.214427 223.564999 508.976369 223.829447 509.602437 224.280212 510.41393 222.898571 511.887061 221.974999 513.569703 221.974999 514.618064 221.974999 515.585095 222.333515 516.361448 222.937962 517.281278 221.860216 518.629979 221.179999 520.132986 221.179999 521.909882 221.179999 523.471109 222.130711 524.362993 223.565036 524.368598 223.565011 524.374206 223.564999 524.379817 223.564999 525.486488 223.564999 526.484406 224.044408 527.188344 224.812518 527.189785 224.812733 527.191225 224.812949 527.192666 224.813164 535.833015 226.104431 544.102127 230.558898 552 238.176566 538.153256 236.176831 526.1733 236.176831 516.060135 238.176566 500.890386 241.176168 493.498061 235.015607 481 235.015607 483.460454 233.572991 484.867899 231.304039 485.222333 228.208753zM320.472534 216.781679C320.285529 216.204203 320.184523 215.588339 320.184523 214.949012 320.184523 211.650664 322.872908 208.976824 326.189198 208.976824 327.4369 208.976824 328.595721 209.355312 329.555925 210.003147 330.61453 206.528971 333.8594 204 337.698157 204 342.231674 204 345.936882 207.527225 346.190886 211.97297 347.029565 211.341891 348.074387 210.967553 349.207116 210.967553 350.272416 210.967553 351.259963 211.29865 352.071404 211.863023 353.123175 210.133165 355.032489 208.976824 357.213349 208.976824 358.572121 208.976824 359.825483 209.425697 360.831708 210.182484 362.023894 208.833112 363.771934 207.981459 365.719971 207.981459 368.022992 207.981459 370.046487 209.17178 371.202451 210.9676 371.209715 210.967569 371.216984 210.967553 371.224256 210.967553 372.659181 210.967553 373.953037 211.56827 374.865467 212.530645L374.953291 212.625703C374.987031 212.663181 375.020208 212.701169 375.052809 212.739657L391 231C383.735051 227.337398 373.548777 226.757963 360.441178 229.261693 340.77978 233.017289 331.198644 225.304074 315 225.304074 318.188976 223.497873 320.013154 220.657075 320.472534 216.781679z"/>
    <path fill="#23D291" d="M426.472534,216.781679 C426.285529,216.204203 426.184523,215.588339 426.184523,214.949012 C426.184523,211.650664 428.872908,208.976824 432.189198,208.976824 C433.4369,208.976824 434.595721,209.355312 435.555925,210.003147 C436.61453,206.528971 439.8594,204 443.698157,204 C448.231674,204 451.936882,207.527225 452.190886,211.97297 C453.029565,211.341891 454.074387,210.967553 455.207116,210.967553 C456.272416,210.967553 457.259963,211.29865 458.071404,211.863023 C459.123175,210.133165 461.032489,208.976824 463.213349,208.976824 C464.572121,208.976824 465.825483,209.425697 466.831708,210.182484 C468.023894,208.833112 469.771934,207.981459 471.719971,207.981459 C474.022992,207.981459 476.046487,209.17178 477.202451,210.9676 C477.209715,210.967569 477.216984,210.967553 477.224256,210.967553 C478.659181,210.967553 479.953037,211.56827 480.865467,212.530645 L480.953291,212.625703 C480.987031,212.663181 481.020208,212.701169 481.052809,212.739657 L497,231 C489.735051,227.337398 479.548777,226.757963 466.441178,229.261693 C446.77978,233.017289 437.198644,225.304074 421,225.304074 C424.188976,223.497873 426.013154,220.657075 426.472534,216.781679 Z"/>
    <g transform="matrix(-1 0 0 1 446 145)">
      <path fill="#86B6FF" d="M58.9208504,0 C46.4208217,7.24792227 1.00442429,74.9129521 0,98 C33.4636697,98 73.1303364,98 119,98 C91.2821038,56.1367531 71.2557206,23.4700865 58.9208504,0 Z"/>
      <polygon fill="#65A2FF" points="58.946 .058 82.508 98.021 119.133 98.021"/>
      <path fill="url(#extreme-sports_illustration--f)" d="M12.0495564,0.0716961064 L28.8803243,98.0269071 C28.8803243,98.0269071 38.8963715,98.0269071 58.9284658,98.0269071 C55.2874831,76.1396576 39.66118,43.4879206 12.0495564,0.0716961064 Z" transform="matrix(-1 0 0 1 70.978 0)"/>
    </g>
    <g transform="translate(504 132)">
      <polyline fill="#FFEAD6" points="26 108.665 26.319 116 31 115.234 30.655 108 26 108.665"/>
      <polyline fill="#FFEAD6" points="19 108.665 18.681 116 14 115.234 14.344 108 19 108.665"/>
      <polygon fill="#FFA85A" points="17.325 19.199 12 22.994 12 50 30 50 30 22.994 22.985 18"/>
      <path fill="#FF973A" d="M18.6433306,18.2126824 C18.6433306,18.2126824 17.1048585,18.1161922 17.004966,19.6572379 C16.9057097,21.1989827 18.287026,23.4140611 21.8080783,22.9330087 C25.3291305,22.4512571 25.7414258,18.3336447 23.9993511,18.084728 C22.2572765,17.8365106 18.6433306,18.2126824 18.6433306,18.2126824"/>
      <polyline fill="#646464" points="12 50 13.193 111 19.705 110.934 23 50.127 12 50"/>
      <polyline fill="#646464" points="30.282 50 32 111 25.156 111 20 50 30.282 50"/>
      <path fill="#FF973A" d="M12.0544906 22.9656463C12.0544906 22.9656463 7.55449134 24.8608024 5.87203572 30.353228L4.18242071 46.0705181C3.76196952 47.463506 4.40501252 48.9546187 5.71322753 49.6241764 7.16202684 50.3655641 5.89156132 49.8621131 6.7227009 48.478104L12.0544906 39.6006922 12.0544906 22.9656463M29.9531541 22.970082C29.9531541 22.970082 34.4534381 24.8652381 36.1357569 30.3576637L37.8252344 46.0749538C38.2456514 47.4679417 37.6026607 48.9590544 36.2945522 49.6286121 34.8458707 50.3699998 36.1155821 49.8665488 35.2845101 48.4825397L29.9531541 39.6051279 29.9531541 22.970082"/>
      <polyline fill="#D9E8FF" points="1.252 26.987 11.14 29.958 12.252 57.987 2.784 54.758 1.252 26.987"/>
      <polyline fill="#65A2FF" points="11 29.971 21 27 21 54.512 12.2 58 11 29.971"/>
      <polygon fill="#D9E8FF" points="31 29.996 30.576 58 21 54.516 21 27"/>
      <polyline fill="#65A2FF" points="30.932 30.008 40.499 27.012 38.917 54.495 30.499 58.012 30.932 30.008"/>
      <path fill="#FFEAD6" d="M0 42.6730284L0 47.6890506C0 48.2757856.389118457 48.7672671.900826446 48.827462L2.24380165 48.9835719C2.55991736 49.0206149 2.87947658 48.9948171 3.18801653 48.9081629L6.45316804 47.9893636C6.77341598 47.8987405 7 47.5706452 7 47.1929387L7 42.7133788C7 42.2099906 6.6046832 41.8256692 6.16873278 41.9037242L3.83264463 42.3244271 3.81404959 41.8058248C3.79476584 41.2832535 3.36639118 40.9075315 2.91873278 41.0199835L.786501377 41.5564458C.327134986 41.6722053 0 42.136566 0 42.6730284M41 42.6730284L41 47.6890506C41 48.2757856 40.6108815 48.7672671 40.0984848 48.827462L38.7555096 48.9835719C38.4387052 49.0206149 38.1205234 48.9948171 37.8112948 48.9081629L34.546832 47.9893636C34.2252066 47.8987405 34 47.5706452 34 47.1929387L34 42.7133788C34 42.2099906 34.3946281 41.8256692 34.8312672 41.9037242L37.1666667 42.3244271 37.1852617 41.8058248C37.2045455 41.2832535 37.6336088 40.9075315 38.0812672 41.0199835L40.2128099 41.5564458C40.672865 41.6722053 41 42.136566 41 42.6730284"/>
      <path fill="#646464" d="M15.613543 114.562321C15.613543 114.562321 13.598242 112.948347 12.4554732 115.072889L12.1253259 116.03474C12.1253259 116.03474 5.43314982 118.26696 5.43824862 120.866378 5.43888597 121.435625 5.81874663 121.940143 6.41849308 121.969785 7.175665 122.007291 8.52047371 121.865735 10.8933281 121.19002 14.7607686 120.089033 17.7760719 119.831934 18.9494334 119.255429 19.2738446 119.095725 19.4625003 118.769059 19.4357316 118.423034L19.2030988 114.898062C19.1705939 114.490334 18.7142512 114.267112 18.3267424 114.447383 17.8168623 114.685124 16.5077452 114.970049 15.613543 114.562321M29.5182948 114.617644C29.5182948 114.617644 31.5328515 113.00367 32.6761969 115.128212L33.0063267 116.090063C33.0063267 116.090063 39.6987846 118.322283 39.6936861 120.921701 39.6924115 121.490948 39.312571 121.995466 38.7134937 122.025108 37.9550874 122.062614 36.6109874 121.921058 34.2376217 121.245343 30.3716613 120.144356 27.3552435 119.887258 26.1832189 119.310752 25.8581876 119.151048 25.6689047 118.824382 25.6963093 118.478357L25.9289297 114.953385C25.9607955 114.545657 26.4183886 114.322435 26.8052396 114.502706 27.3144552 114.740447 28.6247775 115.025373 29.5182948 114.617644"/>
      <path fill="#FFEAD6" d="M21.6316957,21 L20.3683043,21 C19.0599049,21 18,19.957354 18,18.6710292 L18,14 L24,14 L24,18.6710292 C24,19.957354 22.9400951,21 21.6316957,21"/>
      <path fill="#FFEAD6" d="M21.0988178,18 L20.9016507,18 C17.7927244,18 15.237928,15.4899008 15.1142153,12.3139106 L15.004678,9.15438658 C14.8738775,5.79595152 17.5027727,3 20.791469,3 L21.2089994,3 C23.6993621,3 27.1259466,5.79595152 26.9964348,9.15438658 L26.8856088,12.3139106 C26.7631848,15.4899008 24.2083884,18 21.0988178,18"/>
      <path fill="#FFEAD6" d="M16.9951658 10.8635862C17.0713435 11.9654647 16.2381494 12.9197459 15.1369729 12.995245 14.0351162 13.0707441 13.0801737 12.2382136 13.0046762 11.1363351 12.9298587 10.0344566 13.7616925 9.08017538 14.8642293 9.0046763 15.966086 8.92985739 16.9203483 9.76170765 16.9951658 10.8635862M28.995245 10.8635862C29.0707441 11.9654647 28.2382136 12.9197459 27.1363351 12.995245 26.0351367 13.0707441 25.0801753 12.2382136 25.0046762 11.1363351 24.9298573 10.0344566 25.7617076 9.08017538 26.8642663 9.0046763 27.9661448 8.92985739 28.9204261 9.76170765 28.995245 10.8635862"/>
      <path fill="#646464" d="M15,11.9957472 L15,5.37341996 C15,3.30513881 16.4521404,1.56857649 18.3555775,1.38854105 C18.9476996,1.33254578 19.6537923,1.24323686 20.4620653,1.40271707 C23.5707068,2.01653869 23.3263909,0 23.3263909,0 L24.7667412,0 C27.398541,0 29.4506636,3.19243946 26.6786933,5.41594802 C25.1184775,6.66839929 22.4820928,7.47572357 17.6363848,6.1509746 C17.0684977,5.99503839 16.4567254,6.38346131 16.1803144,6.94199646 C16.0584839,7.18936799 15.9766086,7.50832841 15.9779186,7.92085056 L15.8560882,12 L15,11.9957472"/>
      <polygon fill="#646464" points="26 12 27 12 27 5 26 5"/>
    </g>
    <path fill="#23D291" d="M121.093264,168 C114.096314,190.082666 109.065226,205.161142 106,213.235428 C119.5,216.260006 115.912003,209.202658 133,211.138093 C129.09938,198.108729 125.130468,183.729365 121.093264,168 Z"/>
    <path fill="#23D291" d="M102.121863,173 C95.0394763,191.340652 89.9988552,204.581334 87,212.722047 C100,210.08162 102.121863,216.628686 113,212.722047 C109.183839,199.585491 105.557793,186.344809 102.121863,173 Z" opacity=".5"/>
    <path fill="#23D291" d="M92.8416491,166 C85.1830702,190.147305 79.5691872,206.973701 76,216.47919 C86.4883621,224.401013 91.5,216.47919 107,216.47919 C102.458069,201.140314 97.7386188,184.313918 92.8416491,166 Z"/>
    <path stroke="#585858" stroke-linecap="round" d="M91.6,190.333333 L88.4,193.666667" opacity=".5"/>
    <path stroke="#585858" stroke-linecap="round" d="M94.6,197.333333 L91.4,200.666667" opacity=".5" transform="matrix(-1 0 0 1 186 0)"/>
    <path stroke="#585858" stroke-linecap="round" d="M90.6 207.333333L87.4 210.666667M92.6 183.362745L89.4 219.637255" opacity=".5"/>
    <path fill="#23D291" d="M45.094786,197 C40.1532272,214.490605 36.4549652,226.566003 34,233.226196 C41.3440943,236.23524 44,229.49795 54,229.49795 C50.8759603,218.75049 47.9075557,207.917839 45.094786,197 Z"/>
    <path fill="#23D291" d="M33.7301489,208 C29.2475158,221.730164 26.0041328,231.205623 24,236.426377 C29.8893158,240.777326 32.5,234.87422 41,233.474312 C38.4496623,225.049653 36.0263786,216.558215 33.7301489,208 Z" opacity=".3"/>
    <path fill="#23D291" d="M25.7331266,218 C22.3053435,229.962917 19.7276346,238.125618 18,242.488104 C22.6147816,244.645348 25.7331266,239.286449 32,239.286449 C29.8015171,232.246766 27.7125593,225.151283 25.7331266,218 Z"/>
    <path fill="url(#extreme-sports_illustration--g)" d="M191.683472,183 C187.616532,192.863861 184.722041,199.984887 183,204.363078 C188.060366,208.011838 192.230772,210.98539 198,207.33663 C195.808635,200.271604 193.703125,192.159395 191.683472,183 Z" opacity=".3"/>
    <path fill="#23D291" d="M185.765684,181 C179.924762,195.056256 176.002867,204.735055 174,210.036396 C179.885597,214.454505 183.484527,210.036396 193,210.036396 C190.451273,201.481695 188.039834,191.802896 185.765684,181 Z"/>
    <path fill="#23D291" d="M131.724152,184 C127.638159,194.232371 124.730109,201.619435 123,206.161193 C128.084073,209.946269 132.203745,209.946269 138,206.161193 C135.798369,198.832221 133.706419,191.445157 131.724152,184 Z" opacity=".3"/>
    <path fill="#23D291" d="M137.307563,188 C133.727129,198.382264 131.291275,205.36706 130,208.954387 C133.794521,211.944046 136.182611,207.486297 142,208.321675 C140.356802,202.532854 138.792656,195.758962 137.307563,188 Z"/>
    <g transform="translate(124 158)">
      <circle cx="31.5" cy="76.5" r="9" fill="#D8D8D8" stroke="#585858" stroke-width="5"/>
      <circle cx="59.5" cy="76.5" r="9" fill="#D8D8D8" stroke="#585858" stroke-width="5"/>
      <rect width="23" height="4" x="128" y="69" fill="#585858" rx="2"/>
      <rect width="16" height="4" x="131" y="84" fill="#585858" rx="2"/>
      <rect width="16" height="4" x="131" y="77" fill="#585858" transform="rotate(90 139 79)"/>
      <path fill="#FFA85A" d="M76.5272727,81 L76.5272727,78.6842105 C76.5272727,76.4750715 74.7364117,74.6842105 72.5272727,74.6842105 L19.0545455,74.6842105 C16.8454065,74.6842105 15.0545455,76.4750715 15.0545455,78.6842105 L15.0545455,81 L11,81 C4.92486775,81 7.43989126e-16,76.0751322 0,70 L-1.77635684e-15,20 C-2.52034597e-15,13.9248678 4.92486775,9 11,9 L127,9 C133.075132,9 138,13.9248678 138,20 L138,70 C138,76.0751322 133.075132,81 127,81 L76.5272727,81 Z"/>
      <g transform="translate(9 28)">
        <rect width="20" height="20" fill="#FFF" rx="3"/>
        <path fill="#F4F4F4" d="M19.9624962,2.59139213 L19.9624962,16.9209276 C19.9624962,18.5777819 18.6193504,19.9209276 16.9624962,19.9209276 L2.40099509,19.9209276 C1.84871034,19.9209276 1.40099509,19.4732124 1.40099509,18.9209276 C1.40099509,18.6532665 1.50829758,18.3967772 1.69889267,18.2088517 L18.2603938,1.87931615 C18.6536625,1.4915557 19.2868117,1.49602101 19.6745722,1.88928971 C19.8590661,2.07640442 19.9624962,2.32861861 19.9624962,2.59139213 Z"/>
      </g>
      <g transform="translate(33 28)">
        <rect width="20" height="20" fill="#FFF" rx="3"/>
        <path fill="#F4F4F4" d="M19.9624962,2.59139213 L19.9624962,16.9209276 C19.9624962,18.5777819 18.6193504,19.9209276 16.9624962,19.9209276 L2.40099509,19.9209276 C1.84871034,19.9209276 1.40099509,19.4732124 1.40099509,18.9209276 C1.40099509,18.6532665 1.50829758,18.3967772 1.69889267,18.2088517 L18.2603938,1.87931615 C18.6536625,1.4915557 19.2868117,1.49602101 19.6745722,1.88928971 C19.8590661,2.07640442 19.9624962,2.32861861 19.9624962,2.59139213 Z"/>
      </g>
      <rect width="31" height="51" x="90" y="20" fill="#FFF5EB" rx="5"/>
      <path fill="#FFA85A" fill-opacity=".072" d="M121,23.570403 L121,66 C121,68.7614237 118.761424,71 116,71 L91.7780881,71 C91.2258034,71 90.7780881,70.5522847 90.7780881,70 C90.7780881,69.8168046 90.8284117,69.6371292 90.9235662,69.4805847 L119.145478,23.0509877 C119.432343,22.5790483 120.047476,22.4290159 120.519415,22.7158811 C120.817827,22.8972687 121,23.221188 121,23.570403 Z"/>
      <path fill="#428DFF" d="M30,0 L67,0 C71.9705627,-9.13077564e-16 76,4.02943725 76,9 L21,9 L21,9 C21,4.02943725 25.0294373,9.13077564e-16 30,0 Z"/>
    </g>
    <g transform="translate(421 179)">
      <path fill="#646464" d="M41.886,58.756 L41.424,53.259 C41.424,53.259 42.186,52.894 43.147,52.573 C43.446,53.203 43.961,53.914 44.806,53.963 C46.334,54.05 46.835,54.341 47.565,55.754 C48.294,57.167 49.295,61.005 48.509,62.222 C47.722,63.439 46.084,62.208 44.941,62.373 L44.935,62.375 C45.084,62.123 45.182,61.89 45.151,61.71 C44.914,60.344 41.886,58.756 41.886,58.756"/>
      <path fill="#585858" d="M48.509,62.222 C49.295,61.005 48.294,57.167 47.565,55.754 C46.835,54.341 46.334,54.05 44.806,53.963 C43.961,53.914 43.446,53.203 43.147,52.573 C43.841,52.341 44.635,52.132 45.337,52.102 C47.01,52.031 47.532,53.546 48.549,55.973 C49.566,58.399 50.445,62.972 48.815,64.069 C47.186,65.165 45.309,65.436 43.811,64.638 C43.252,64.34 44.43,63.231 44.935,62.375 L44.941,62.373 C46.084,62.208 47.722,63.439 48.509,62.222"/>
      <path fill="#FFEAD6" d="M24.184 34.73C24.184 34.73 23.23 36.978 22.766 37.859 22.301 38.74 13.023 45.623 12.206 46.137 11.389 46.651 10.247 49.055 9.343 49.991 8.746 50.609 8.16 50.568 8.581 49.554 9.184 48.1 9.694 47.107 9.694 47.107 9.694 47.107 8.673 48.151 7.926 49.257 7.448 49.963 6.536 49.946 7.448 48.205 7.867 47.406 8.545 46.495 8.545 46.495 8.545 46.495 6.928 47.882 5.93 48.504 5.862 47.785 6.013 46.852 6.013 46.852 6.013 46.852 4.524 47.446 5.279 47.002 8.295 45.231 15.913 40.533 16.786 37.797 17.876 34.375 18.692 32.732 18.692 32.732L24.184 34.73M41.16 58.347C41.16 58.347 35.855 59.334 31.494 61.624 23.09 66.036 17.555 64.389 16.297 62.765 14.959 61.038 15.384 57.595 16.297 55.576 16.825 54.408 21.566 57.737 22.184 57.212 25.632 54.283 39.449 53.188 39.449 53.188L41.16 58.347M12.616 8.835C12.438 7.77 12.488 7.195 13.184 6.042 13.88 4.888 17.512 2.424 20.151 3.19 22.791 3.956 23.379 7.293 23.525 8.459 23.692 9.783 23.698 11.512 24.197 13.221 24.424 13.995 25.838 15.318 26.249 15.636L26.253 15.638C25.893 16.934 24.618 17.953 23.512 18.583 22.886 18.94 22.297 19.135 21.709 19.245 21.741 19.116 21.761 18.984 21.75 18.848 21.712 18.371 20.859 16.659 20.318 16.416 19.55 16.071 18.964 16.38 18.285 16.867 17.385 17.512 17.036 16.134 16.32 16.205 15.853 16.25 16.022 15.923 16.032 15.668 15.901 15.558 15.556 15.622 15.436 15.528 15.143 15.297 15.442 15.027 15.323 14.893 15.025 14.556 13.903 15.038 13.816 14.571 13.666 13.761 14.31 11.767 13.917 11.37 13.123 10.568 12.786 9.846 12.616 8.835"/>
      <path fill="#585858" d="M16.027,8.081 C17.558,8.424 18.06,9.419 19.767,9.146 C21.237,8.912 21.426,9.948 21.426,9.948 L23.994,12.597 C23.994,12.597 25.63,9.821 24.102,6.032 C23.442,4.396 21.998,2.521 21.998,2.521 C21.998,2.521 22.13,1.631 22.606,0.945 C22.174,0.746 20.717,1.527 20.339,1.981 C19.805,1.449 18.61,0.085 17.366,0.654 C17.817,0.988 17.951,1.383 18.153,1.83 C17.792,1.498 16.402,1.635 15.513,1.958 C15.873,2.292 16.126,2.301 16.418,2.666 C13.383,2.476 10.433,9.651 10.433,9.651 C10.433,9.651 13.424,10.805 16.027,8.081"/>
      <path fill="#FF973A" d="M26.83,26.404 C26.449,26.15 24.184,34.73 24.184,34.73 L18.701,33.482 L20.739,20.675 L26.83,26.404"/>
      <path fill="#65A2FF" d="M28.145,38.967 C24.993,42.719 19.2,49.62 16.297,55.576 C17.425,56.788 18.7,57.7 20.092,58.343 C20.087,58.08 20.125,57.839 20.222,57.635 C20.92,56.185 28.952,51.471 32.941,48.204 C35.414,46.178 36.306,43.554 36.628,41.764 C33.169,41.522 29.869,40.763 28.145,38.967"/>
      <path fill="#3A7FE8" d="M36.628,41.764 C36.306,43.554 35.414,46.178 32.941,48.204 C28.952,51.471 20.92,56.185 20.222,57.635 C20.125,57.839 20.087,58.08 20.092,58.343 C20.75,58.646 21.814,59.597 24.184,59.073 C27.722,55.195 34.964,52.284 37.87,47.441 C38.589,46.244 39.213,43.185 39.449,41.861 C38.515,41.861 37.566,41.83 36.628,41.764"/>
      <path fill="#FFA85A" d="M29.455,38.967 C31.268,37.762 33.069,36.547 34.419,36.029 C35.77,35.511 35.62,33.25 33.519,34.455 C31.418,35.661 30.344,36.22 29.455,35.19 C28.567,34.16 27.503,31.646 27.147,29.976 C26.79,28.305 26.253,25.462 26.253,24.482 C26.253,22.681 24.962,22.836 24.29,24.988 C23.016,29.075 20.689,33.372 19.273,35.794 L14.612,33.482 C14.612,33.482 19.158,19.982 21.497,18.41 C21.814,18.198 25.873,14.481 25.873,14.481 C25.873,14.481 30.252,17.028 33.969,21.421 C36.012,23.835 39.082,29.206 40.011,34.73 C40.641,38.472 40.193,43.382 40.193,43.382 C40.193,43.382 36.276,43.709 32.45,42.991 C30.466,42.619 28.714,42.104 27.515,41.707 C27.85,40.801 28.449,39.636 29.455,38.967"/>
      <path fill="#FF973A" d="M24.847,29.121 L20.426,36.367 L19.273,35.794 C20.689,33.372 23.016,29.075 24.29,24.988 C24.962,22.836 26.253,22.681 26.253,24.482 C26.253,25.462 26.79,28.305 27.147,29.976 C27.503,31.646 28.567,34.16 29.455,35.19 C30.344,36.22 31.418,35.661 33.519,34.455 C35.62,33.25 35.77,35.511 34.419,36.029 C33.069,36.547 31.268,37.762 29.455,38.967 C28.449,39.636 27.85,40.801 27.515,41.707 C26.488,41.367 25.866,41.113 25.866,41.113 C25.866,41.113 26.88,32.718 24.847,29.121"/>
      <path fill="#FFF5EB" d="M0.559,47.59 C0.819,46.078 0.702,43.999 4.302,43.201 C9.215,42.113 14.612,33.482 14.612,33.482 L20.427,36.367 C20.427,36.367 18.56,38.5 17.838,39.225 C15.756,41.315 9.23,45.097 7.409,46.371 C5.29,47.855 3.838,48.788 3.122,49.257 C1.18,50.53 0.059,50.496 0.559,47.59"/>
      <path fill="#646464" d="M39.386,58.756 L38.924,53.259 C38.924,53.259 39.686,52.894 40.647,52.573 C40.946,53.203 41.461,53.914 42.306,53.963 C43.834,54.05 44.335,54.341 45.065,55.754 C45.794,57.167 46.795,61.005 46.009,62.222 C45.222,63.439 43.584,62.208 42.441,62.373 L42.435,62.375 C42.584,62.123 42.682,61.89 42.651,61.71 C42.414,60.344 39.386,58.756 39.386,58.756"/>
      <path fill="#585858" d="M46.009,62.222 C46.795,61.005 45.794,57.167 45.065,55.754 C44.335,54.341 43.834,54.05 42.306,53.963 C41.461,53.914 40.946,53.203 40.647,52.573 C41.341,52.341 42.135,52.132 42.837,52.102 C44.51,52.031 45.032,53.546 46.049,55.973 C47.066,58.399 47.945,62.972 46.315,64.069 C44.686,65.165 42.809,65.436 41.311,64.638 C40.752,64.34 41.93,63.231 42.435,62.375 L42.441,62.373 C43.584,62.208 45.222,63.439 46.009,62.222"/>
      <path fill="#585858" d="M38.522,53.274 L38.959,58.806 C38.959,58.806 39.72,59.657 40.441,59.894 C41.021,60.085 41.424,59.946 41.424,59.946 C41.424,59.946 40.708,58.866 40.752,58.477 C40.796,58.089 42.777,59.086 42.772,57.513 C42.769,56.506 40.203,52.728 40.203,52.728 L38.522,53.274"/>
    </g>
    <g transform="translate(266 294)">
      <path fill="#3A7FE8" d="M44.557,55.153 C45.068,55.429 45.679,55.289 45.924,54.838 L50.196,46.957 C50.441,46.508 50.226,45.918 49.714,45.641 L48.062,44.745 C47.551,44.466 46.938,44.608 46.694,45.058 L42.42,52.939 C42.177,53.39 42.393,53.98 42.904,54.256 L44.557,55.153"/>
      <polyline fill="#5E90DA" points="75.434 56.43 75.003 58.584 64.763 63.161 65.781 58.597 75.434 56.43"/>
      <polyline fill="#D4D7E4" points="76.702 54.252 79.764 55.087 78.428 58.639 75.014 58.579 75.003 58.584 75.434 56.431 76.702 54.252"/>
      <polyline fill="#5E90DA" points="65.781 58.597 64.763 63.161 51.502 56.045 53.992 51.171 65.781 58.597"/>
      <polyline fill="#5E90DA" points="8.007 67.82 10.772 66.292 10.513 65.493 11.953 64.015 13.935 66.327 21.938 68.246 20.326 72.714 13.384 69.205 10.073 69.898 6.861 72.013 5.121 71.929 8.007 67.82"/>
      <polyline fill="#5E90DA" points="20.327 72.714 21.939 68.245 27.865 69.664 36.614 68.321 38.158 66.984 40.997 74.928 26.967 76.07 20.327 72.714"/>
      <polyline fill="#5E90DA" points="20.115 79.797 20.268 74.687 26.914 74.205 35.559 69.964 36.704 68.092 42.369 75.308 28.165 81.069 20.115 79.797"/>
      <polyline fill="#5E90DA" points="86.801 46.33 86.341 48.47 76.751 53.495 74.68 49.309 86.801 46.33"/>
      <polyline fill="#D4D7E4" points="88.101 44.187 91.165 45.074 89.78 48.587 86.351 48.464 86.341 48.47 86.801 46.33 88.101 44.187"/>
      <polyline fill="#5E90DA" points="74.68 49.309 76.751 53.495 61.894 56.156 60.779 50.815 74.68 49.309"/>
      <polyline fill="#5E90DA" points="37.934 66.083 41.965 65.113 47.004 54.895 52.311 49.56 54.606 48.434 59.73 48.228 59.965 50.904 60.78 50.815 61.894 56.157 60.037 56.493 54.614 67.225 43.371 74.901 42.369 75.309 36.704 68.092 37.934 66.083"/>
      <polyline fill="#D4D7E3" points="59.73 48.229 53.16 49.143 53.949 46.115 59.485 45.712 59.73 48.229"/>
      <polyline fill="#FFEAD6" fill-opacity=".532" points="55.615 45.994 61.666 46.031 62.28 39.325 58.364 35.707 51.773 36.569 51.144 41.31 53.949 46.116 55.615 45.994"/>
      <polyline fill="#585858" points="61.674 33.925 60.763 36.33 58.376 37.089 54.773 38.29 56.545 40.048 56.579 41.933 54.308 41.97 55.925 44.165 53.206 47.045 52.164 46.215 52.727 44.578 50.932 40.947 51.264 36.25 56.474 34.107 60.108 35.002 61.674 33.925"/>
      <polyline fill="#3A7FE8" points="59.965 50.904 53.571 51.475 47.005 54.895 49.927 49.481 59.73 48.229 61.653 50.719 59.965 50.904"/>
      <polyline fill="#5E90DA" points="11.295 75.337 20.269 74.687 20.115 79.798 11.699 78.469 11.49 78.585 11.273 75.322 11.295 75.337"/>
      <polyline fill="#3A7FE8" points=".822 84.036 5.636 78.805 8.443 73.613 11.273 75.322 11.49 78.585 8.493 80.26 8.331 80.456 6.023 87.893 2.049 89.567 .822 84.036"/>
      <polyline fill="#3A7FE8" points="2.163 71.077 8.025 67.738 11.862 63.919 14.089 66.365 13.381 69.227 10.188 69.876 9.986 70.008 5.754 76.065 1.677 76.433 2.163 71.077"/>
      <path fill="#86B0EF" d="M39.81,65.634 C40.795,66.168 41.976,65.898 42.447,65.027 L50.691,49.824 C51.162,48.955 50.745,47.817 49.761,47.282 L46.572,45.553 C45.587,45.02 44.405,45.29 43.934,46.159 L35.69,61.364 C35.22,62.232 35.635,63.37 36.62,63.904 L39.81,65.634"/>
      <polyline fill="#3A7FE8" points="62.633 40.984 58.787 41.408 58.372 39.279 61.797 37.836 62.828 39.399 62.633 40.984"/>
      <polyline fill="#585858" points="63.198 48.123 63.426 44.038 61.807 43.595 61.704 44.6 62.366 44.791 62.253 46.863 55.281 45.25 47.883 39.195 47.241 39.979 54.821 46.185 63.198 48.123"/>
      <path fill="#5E90DA" d="M38.494,60.465 C38.909,60.686 39.42,60.53 39.64,60.116 L46.27,47.652 C46.491,47.238 46.334,46.726 45.921,46.506 C45.507,46.286 44.996,46.443 44.775,46.855 L38.146,59.322 C37.926,59.733 38.082,60.248 38.494,60.465"/>
      <path fill="#FFF" d="M46.201 39.487C46.285 39.681 46.508 39.774 46.705 39.691 46.898 39.609 46.99 39.384 46.907 39.189 46.825 38.993 46.601 38.903 46.406 38.985 46.211 39.067 46.12 39.293 46.201 39.487M46.0523919 37.9239556C46.1963919 38.2639556 46.5853919 38.4229556 46.9243919 38.2809556 47.2633919 38.1369556 47.4233919 37.7469556 47.2803919 37.4079556 47.1373919 37.0689556 46.7463919 36.9099556 46.4073919 37.0519556 46.0693919 37.1959556 45.9093919 37.5859556 46.0523919 37.9239556M44.0523919.923955559C44.1963919 1.26395556 44.5853919 1.42295556 44.9243919 1.28095556 45.2633919 1.13695556 45.4233919.746955559 45.2803919.407955559 45.1373919.068955559 44.7463919-.090044441 44.4073919.051955559 44.0693919.195955559 43.9093919.585955559 44.0523919.923955559M43.0523919 4.92395556C43.1963919 5.26395556 43.5853919 5.42295556 43.9243919 5.28095556 44.2633919 5.13695556 44.4233919 4.74695556 44.2803919 4.40795556 44.1373919 4.06895556 43.7463919 3.90995556 43.4073919 4.05195556 43.0693919 4.19595556 42.9093919 4.58595556 43.0523919 4.92395556M42.299 36.809C42.548 37.398 43.225 37.675 43.815 37.427 44.404 37.178 44.68 36.5 44.432 35.911 44.184 35.323 43.506 35.045 42.917 35.293 42.327 35.541 42.051 36.221 42.299 36.809M45.0977687 33.7280324C45.3667687 34.3610324 46.0947687 34.6590324 46.7287687 34.3920324 47.3617687 34.1250324 47.6597687 33.3950324 47.3917687 32.7630324 47.1247687 32.1280324 46.3957687 31.8310324 45.7617687 32.0980324 45.1297687 32.3640324 44.8307687 33.0940324 45.0977687 33.7280324M40.0977687 20.7280324C40.3667687 21.3610324 41.0947687 21.6590324 41.7287687 21.3920324 42.3617687 21.1250324 42.6597687 20.3950324 42.3917687 19.7630324 42.1247687 19.1280324 41.3957687 18.8310324 40.7617687 19.0980324 40.1297687 19.3640324 39.8307687 20.0940324 40.0977687 20.7280324M47.0977687 11.7280324C47.3667687 12.3610324 48.0947687 12.6590324 48.7287687 12.3920324 49.3617687 12.1250324 49.6597687 11.3950324 49.3917687 10.7630324 49.1247687 10.1280324 48.3957687 9.83103238 47.7617687 10.0980324 47.1297687 10.3640324 46.8307687 11.0940324 47.0977687 11.7280324" opacity=".5"/>
      <polyline fill="#585858" points="61.937 43.084 61.186 43.401 61.196 44.734 61.751 45.104 61.937 43.084"/>
    </g>
    <g transform="translate(83)">
      <path fill="#65A2FF" d="M47.9073011,65.2190458 L0,0 L10.8021366,49.7605918 C23.3558862,48.256547 35.6562025,53.8617311 47.9073011,65.2190458 Z" opacity=".3"/>
      <path fill="#65A2FF" d="M0,0 L48.0779402,65.3026326 C50.1104126,51.0602213 59.2603926,43.9028508 74,44.2731425 L0,0 Z" opacity=".4"/>
      <polyline fill="#585858" points="21.071 32.644 20.129 31.646 20.87 28.661 22.189 27.644 25.896 29.177 26.129 31.296 25.886 31.901 21.071 32.644"/>
      <polygon fill="#585858" points="26.845 33.971 31.097 29.37 32.357 24 34 24.659 33.099 29.789 30.973 34.942 31.689 41.222 28.648 43.101 25.255 43.875 20.434 38.953 15.799 37.952 10 35.97 10.668 34.352 16.29 35.917 22.037 35.402"/>
      <path fill="#FFEAD6" d="M24.8130565,34.9293386 C25.6571224,34.5674809 25.8363961,33.5155901 25.8363961,32.9433539 C25.8363961,32.3711178 25.8363961,30.9406878 25.3204918,30.3494605 C24.8045874,29.7582333 23.7217176,28.9761551 22.4749018,29.5698618 C21.2280859,30.1635684 21.206153,31.0017032 21.100162,31.8299989 C20.994171,32.6582945 21.5148872,33.6892049 22.2695875,34.290441 C23.0242878,34.8916772 23.9689905,35.2911963 24.8130565,34.9293386 Z"/>
      <polygon fill="#FFEAD6" points="9.856 33.035 9.678 33.479 7.705 33.184 7.786 34.678 10.006 35.971 10.712 34.367"/>
      <polyline fill="#FFEAD6" points="32.08 25.256 32 23.09 32.681 23.592 33.647 22 35 23.39 33.709 26 32.08 25.256"/>
      <polyline fill="#646464" points="25.304 43.821 28.332 51.869 37.768 54.181 38.038 52.516 31.456 49.404 30.59 45.191 36.285 49.062 43.304 49.35 43.221 47.761 37.141 46.331 31.644 41.181 28.701 42.932 25.304 43.821"/>
      <polyline fill="#585858" points="37.918 52.473 39.631 52.901 39.267 57.473 37.631 54.407 37.918 52.473"/>
      <polyline fill="#585858" points="43.159 47.695 45.159 47.482 44.958 52.482 43.237 49.38 43.159 47.695"/>
      <polyline fill="#428DFF" points="12.38 34.43 11.073 37.032 12.259 37.42 13.073 34.42 12.38 34.43"/>
      <polyline fill="#428DFF" points="31.194 26.691 33.822 27.92 34.15 26.583 31.15 25.92 31.194 26.691"/>
      <polyline fill="#428DFF" points="19.646 35.008 22.401 42.58 23.646 43.447 21.028 34.447 19.646 35.008"/>
      <polyline fill="#428DFF" points="26.598 32.833 27.702 31.88 33.598 39.167 33.239 39.88 26.598 32.833" transform="rotate(8 30.098 35.88)"/>
    </g>
  </g>
</svg>
