<svg width="634" height="662" viewBox="0 0 634 662" fill="none" xmlns="http://www.w3.org/2000/svg">
<g clip-path="url(#clip0)">
<path d="M354.037 394.259C313.629 393.766 194.662 396.726 187.963 396.726C183.026 408.778 152.35 662 152.35 662H247.552L267.438 553.043L280.484 662H372.372C372.372 662 355.517 404.831 354.037 394.259Z" fill="#8FA2CC"/>
<path d="M309.821 461.705L276.253 486.936L267.438 553.043" stroke="black" stroke-width="2.0719" stroke-miterlimit="10" stroke-linecap="round" stroke-linejoin="round"/>
<path d="M190.219 112.635C190.219 112.635 190.713 121.374 187.328 124.898C177.243 135.54 146.003 146.041 167.371 186.635L318.212 171.483C318.212 171.483 324.066 153.864 306.224 145.759C306.224 145.759 300.018 142.517 302.487 130.747C304.955 118.978 295.223 111.718 283.023 100.654L258.2 70.2078L190.219 112.635Z" fill="#7C64BF"/>
<path d="M271.317 173.315L197.201 183.252C197.201 183.252 170.403 67.3887 220.754 45.6819C274.279 22.6361 296.845 56.1829 308.128 80.7088L271.317 173.315Z" fill="#7C64BF"/>
<path d="M239.865 42.0876C236.551 43.7085 233.448 45.8228 230.627 48.5009C205.169 72.7449 221.036 120.105 243.602 141.53C256.084 153.37 274.49 158.938 290.498 153.018C313.981 144.349 321.456 117.779 316.802 94.1698C313.347 76.5506 303.615 59.8477 289.229 49.4876C274.913 38.9866 255.45 34.5466 239.865 42.0876Z" fill="#F2F0F9"/>
<path d="M235.281 127.223C230.838 131.593 223.081 133.355 217.158 131.24C211.234 129.126 206.368 123.488 204.887 117.004C203.547 111.155 205.028 104.53 209.33 101.006C213.632 97.482 221.318 97.6935 224.985 102.345L235.281 127.223Z" fill="#F2F0F9"/>
<path d="M228.864 111.719L233.166 195.304C233.73 210.738 246.212 223.072 261.656 223.494C279.497 223.917 293.601 208.412 291.415 190.652L282.318 112.987L228.864 111.719Z" fill="#F2F0F9"/>
<path d="M288.453 165.492L287.325 154.075C287.325 154.075 264.265 161.052 243.603 141.601C243.673 141.53 255.45 163.378 288.453 165.492Z" fill="black"/>
<path d="M295.02 112.141C295.009 112.162 295.002 112.187 295.002 112.212L295.002 112.215C295.002 112.288 295.002 112.458 295.089 112.631C295.153 112.76 295.277 112.815 295.381 112.827C295.473 112.839 295.592 112.822 295.672 112.75C296.525 112.109 297.235 111.399 297.941 110.624C298.485 110.079 298.99 109.45 299.478 108.84C299.628 108.654 299.776 108.469 299.923 108.29L299.923 108.29L299.927 108.285L300.561 107.439C300.591 107.399 300.599 107.348 300.584 107.301C300.568 107.254 300.53 107.218 300.483 107.205L299.495 106.923L299.495 106.923L299.494 106.922C298.263 106.581 297.159 105.688 296.099 104.771C295.047 103.789 294.064 102.737 293.079 101.612C293.031 101.557 292.95 101.545 292.888 101.583C292.826 101.621 292.8 101.699 292.827 101.766C293.113 102.48 293.469 103.121 293.82 103.753L293.823 103.757L293.822 103.757L293.829 103.767L293.832 103.772C294.253 104.403 294.681 105.044 295.181 105.615L295.185 105.62C295.676 106.181 296.177 106.754 296.823 107.256C297.15 107.509 297.495 107.745 297.859 107.954C297.437 108.457 297.014 108.975 296.65 109.521L296.648 109.524C296.085 110.368 295.517 111.218 295.02 112.141Z" fill="#111010" stroke="black" stroke-width="0.3" stroke-linejoin="round"/>
<path d="M301.837 119.552C301.877 119.489 301.865 119.406 301.809 119.358C301.753 119.309 301.669 119.309 301.613 119.357C300.074 120.686 298.398 121.732 296.584 122.43C294.777 122.985 292.906 123.052 291.106 122.499C290.205 122.222 289.37 121.805 288.529 121.315L288.529 121.315L288.52 121.31C287.692 120.896 286.929 120.273 286.15 119.637C284.954 118.658 283.885 117.513 282.804 116.353C282.493 116.019 282.18 115.683 281.862 115.35C281.811 115.297 281.728 115.288 281.667 115.331C281.607 115.374 281.586 115.455 281.62 115.521C282.541 117.362 283.677 119.138 285.172 120.633C286.666 122.196 288.45 123.482 290.596 124.125L290.596 124.125L290.601 124.126C291.671 124.412 292.745 124.555 293.892 124.484L293.893 124.484C294.97 124.412 296.045 124.125 297.045 123.697L297.045 123.697L297.049 123.695C299.049 122.767 300.693 121.339 301.837 119.552Z" fill="#111010" stroke="black" stroke-width="0.3" stroke-linejoin="round"/>
<path d="M223.011 118.343C219.555 118.696 216.523 116.793 216.311 114.115C216.1 112.141 217.51 110.238 219.696 109.322" stroke="black" stroke-width="1.7441" stroke-miterlimit="10" stroke-linecap="round"/>
<path d="M277.456 89.3392C277.449 89.3135 277.436 89.29 277.417 89.2713L277.135 88.9894C277.076 88.9308 276.981 88.9308 276.923 88.9894L276.919 88.9932C276.847 89.0653 276.738 89.1741 276.738 89.3774C276.738 89.3903 276.74 89.4031 276.743 89.4156C277.092 90.7418 277.232 92.0695 277.373 93.4102C277.513 94.7376 277.513 96.0648 277.374 97.3921C277.162 98.7294 276.884 99.9577 276.069 100.908L276.069 100.908L276.065 100.913C275.33 101.848 274.116 102.195 272.868 102.195C271.644 102.195 270.479 101.651 269.51 100.822L269.51 100.822L269.505 100.818C268.541 100.06 267.777 98.9527 267.072 97.8255C266.373 96.7079 265.813 95.5187 265.321 94.2563C264.832 92.9982 264.412 91.6717 264.132 90.4159C264.126 90.2965 264.061 90.2065 263.978 90.1511C263.895 90.0958 263.793 90.0731 263.701 90.0731C263.572 90.0731 263.476 90.1405 263.417 90.2279C263.362 90.3109 263.339 90.4122 263.339 90.505C263.339 90.5154 263.34 90.5257 263.342 90.5359C263.909 93.2258 264.83 95.9187 266.179 98.3306L266.179 98.3307L266.181 98.3335C266.891 99.5409 267.747 100.683 268.821 101.613C269.901 102.548 271.343 103.198 272.861 103.27L272.861 103.27H272.868C273.581 103.27 274.306 103.199 275.033 102.91C275.776 102.685 276.361 102.168 276.86 101.598L276.86 101.598L276.863 101.594C277.807 100.433 278.164 98.9895 278.306 97.5679C278.591 94.7945 278.164 92.0264 277.456 89.3392Z" fill="#222B45" stroke="black" stroke-width="0.3" stroke-linejoin="round"/>
<path d="M311.663 91.1486L311.663 91.1484C311.805 88.8059 311.45 86.5382 310.886 84.279C310.879 84.2226 310.851 84.1787 310.824 84.1503C310.793 84.1167 310.754 84.0916 310.714 84.0757C310.64 84.0461 310.514 84.0321 310.42 84.1265L310.416 84.1303C310.344 84.2024 310.235 84.3112 310.235 84.5145C310.235 84.5244 310.236 84.5342 310.238 84.5439C310.449 85.6009 310.659 86.7197 310.729 87.8362C310.799 88.9561 310.799 90.0759 310.729 91.1958C310.588 92.322 310.379 93.4153 309.837 94.2275C309.303 95.028 308.367 95.4964 307.363 95.4297C306.417 95.3621 305.463 94.8881 304.708 94.1341C303.948 93.3742 303.392 92.4734 302.828 91.4877C302.271 90.5127 301.851 89.4656 301.501 88.4137L301.501 88.4136L301.497 88.4054C301.122 87.468 300.859 86.4742 300.605 85.5147C300.576 85.4084 300.548 85.3024 300.52 85.197C300.513 85.0794 300.448 84.9907 300.366 84.9358C300.283 84.8805 300.182 84.8578 300.089 84.8578C299.96 84.8578 299.864 84.9252 299.805 85.0127C299.75 85.0957 299.727 85.197 299.727 85.2897C299.727 85.299 299.728 85.3083 299.73 85.3174C300.155 87.5821 300.793 89.7811 301.859 91.9112L301.859 91.9112L301.861 91.9147C302.428 92.9783 303.071 93.9793 303.932 94.8397C304.797 95.7046 305.959 96.3608 307.274 96.4338L307.274 96.4341H307.282C307.937 96.4341 308.594 96.2888 309.179 95.9969C309.85 95.6981 310.291 95.1784 310.648 94.6798L310.648 94.6799L310.651 94.6759C311.378 93.5854 311.592 92.2845 311.663 91.1486Z" fill="#222B45" stroke="black" stroke-width="0.3" stroke-linejoin="round"/>
<path d="M294.518 52.4476C297.621 54.6324 299.948 57.8743 300.794 61.5391C302.487 68.7982 299.102 79.2992 265.675 79.6516C234.576 80.004 241.275 100.936 220.049 98.6098L207.285 93.7469C207.285 93.7469 216.452 23.4817 273.362 40.8894C280.978 43.2856 290.005 49.2057 294.518 52.4476Z" fill="#7C64BF"/>
<path d="M390.213 321.95L448.463 379.6L439.365 389.819C434.006 395.81 427.166 400.461 419.408 402.716C401.003 408.002 381.821 400.109 368.423 380.657L347.267 350.282L390.213 321.95Z" fill="#F2F0F9"/>
<path d="M434.359 394.682L546.838 287.769L519.123 261.975L403.541 355.849C392.822 364.589 403.118 411.174 434.359 394.682Z" fill="#F2F0F9"/>
<path d="M411.651 332.663C431.608 306.446 365.672 201.224 338.17 184.028C322.444 174.161 304.179 176.275 291.838 175.923C291.203 181.561 285.773 189.102 271.528 192.203C250.02 196.925 236.41 190.018 230.133 186.776C215.395 189.666 197.835 195.797 187.469 200.66C170.333 208.765 157.568 337.455 182.744 350.071C178.936 377.275 175.269 418.221 175.269 418.221L361.23 404.126L355.87 367.196C355.87 367.196 402.413 344.785 411.651 332.663Z" fill="#C6DDF4"/>
<path d="M352.133 312.295L356.928 359.162" stroke="black" stroke-width="2.0719" stroke-miterlimit="10" stroke-linecap="round" stroke-linejoin="round"/>
<path d="M274.138 362.263L262.643 367.69C261.515 368.183 281.683 394.259 281.683 394.259C281.683 394.259 336.125 380.939 339.439 378.332C342.683 375.724 321.386 377.556 321.386 377.556C321.386 377.556 341.202 371.918 345.997 367.549C349.805 364.095 322.303 366.844 322.303 366.844C332.175 363.32 351.004 357.893 350.37 354.581C349.594 350.423 318.001 359.444 318.001 359.444C318.001 359.444 339.58 351.339 340.003 347.181C340.426 343.023 297.621 354.017 297.621 354.017C297.621 354.017 303.544 345.701 301.217 336.539C300.653 334.213 297.691 332.945 295.928 333.015C294.659 345.208 274.138 362.263 274.138 362.263Z" fill="#F2F0F9"/>
<path d="M137.118 315.889C137.118 315.889 123.507 369.593 133.31 409.13C149.67 475.026 300.23 385.097 300.23 385.097L290.146 355.145C290.146 355.145 180.77 381.574 181.475 377.415C183.167 366.844 187.469 331.465 187.469 331.465L137.118 315.889Z" fill="#F2F0F9"/>
<path d="M205.592 361.911C205.592 361.911 111.166 388.903 113 364.307C116.314 320.118 155.523 230.049 182.391 203.197C191.136 194.458 222.94 186.635 230.133 186.706L205.592 361.911Z" fill="#C6DDF4"/>
<path d="M195.014 363.743C195.014 363.743 197.271 346.617 204.112 309.053" stroke="black" stroke-width="2.0719" stroke-miterlimit="10" stroke-linecap="round" stroke-linejoin="round"/>
<path d="M372.583 289.249H451.777V276.563H372.583C369.057 276.563 366.236 279.383 366.236 282.906C366.236 286.43 369.057 289.249 372.583 289.249Z" fill="black"/>
<path d="M436.968 289.249H585.976C594.579 289.249 602.125 283.541 604.382 275.295L633.436 170.989C635.975 161.757 629.064 152.666 619.473 152.666H482.665C476.952 152.666 471.946 156.542 470.465 162.039L436.968 289.249Z" fill="#333333"/>
<path d="M527.727 226.807C527.727 234.559 534.003 240.902 541.831 240.902C549.588 240.902 555.935 234.559 555.935 226.807C555.935 219.055 549.588 212.712 541.831 212.712C534.073 212.712 527.727 218.984 527.727 226.807Z" fill="white"/>
<path d="M490.351 288.474C490.351 288.474 490.281 303.697 508.827 301.301C508.827 301.301 518.277 296.086 517.149 272.969C517.008 270.221 514.257 268.106 510.943 268.036C507.911 268.036 505.301 269.798 504.808 272.194L501.141 288.404L490.351 288.474Z" fill="#F2F0F9"/>
<path d="M508.898 301.371C508.898 301.371 516.655 304.966 524.06 301.371C524.06 301.371 530.971 302.992 536.119 299.609C536.119 299.609 538.728 300.596 542.606 298.834C545.357 297.565 547.049 294.817 547.12 291.857C547.261 287.064 546.697 278.819 542.113 273.956C541.055 272.828 539.433 272.335 537.882 272.758C536.612 273.11 535.978 272.758 535.202 274.308C535.202 274.308 533.439 271.207 530.406 271.207C527.445 271.207 525.893 272.758 525.188 274.661C525.188 274.661 526.457 267.261 516.373 269.093C506.218 271.066 508.898 301.371 508.898 301.371Z" fill="#F2F0F9"/>
<path d="M230.133 186.776C230.133 186.776 240.359 196.925 264.265 193.965C271.74 193.049 278.933 190.23 284.645 185.296C287.536 182.829 290.287 179.658 291.838 175.852" stroke="black" stroke-width="2.0719" stroke-miterlimit="10" stroke-linecap="round" stroke-linejoin="round"/>
</g>
<g filter="url(#filter0_d)">
<path d="M472.2 30.5001C451 12.3001 419 14.7001 400.8 35.9001C387.8 51.0001 385.3 71.6001 392.6 88.8001L378 105.8L406 107.1C406.1 107.2 406.1 107.2 406.2 107.3C427.4 125.5 459.4 123.1 477.6 101.9C495.8 80.7001 493.4 48.7001 472.2 30.5001Z" fill="white"/>
</g>
<g filter="url(#filter1_d)">
<path d="M518.9 54L501.2 55.2" stroke="#7C64BF" stroke-width="3.3583" stroke-miterlimit="10" stroke-linecap="round"/>
</g>
<g filter="url(#filter2_d)">
<path d="M507.3 27.5L493.7 39.1" stroke="#7C64BF" stroke-width="3.3583" stroke-miterlimit="10" stroke-linecap="round"/>
</g>
<g filter="url(#filter3_d)">
<path d="M487.8 7L481.4 23.6" stroke="#7C64BF" stroke-width="3.3583" stroke-miterlimit="10" stroke-linecap="round"/>
</g>
<g filter="url(#filter4_d)">
<path d="M122.4 102.3H7.3C6 102.3 5 103.3 5 104.6V147.2C5 148.5 6 149.5 7.3 149.5H88.7L107.9 164.6V149.5H122.4C123.7 149.5 124.7 148.5 124.7 147.2V104.6C124.7 103.3 123.7 102.3 122.4 102.3Z" fill="white"/>
</g>
<path d="M103.6 120.3H24.1" stroke="#8FA2CC" stroke-width="2.2389" stroke-miterlimit="10" stroke-linecap="round" stroke-linejoin="round"/>
<path d="M51.6 132.9H24.3" stroke="#8FA2CC" stroke-width="2.2389" stroke-miterlimit="10" stroke-linecap="round" stroke-linejoin="round"/>
<g filter="url(#filter5_d)">
<path d="M66.6 112.8C77.0382 112.8 85.5 104.338 85.5 93.9C85.5 83.4618 77.0382 75 66.6 75C56.1618 75 47.7 83.4618 47.7 93.9C47.7 104.338 56.1618 112.8 66.6 112.8Z" fill="#7C64BF"/>
</g>
<path d="M58.2 94.8L65.2 100L73.7 89.3" stroke="white" stroke-width="2.1832" stroke-miterlimit="10" stroke-linecap="round" stroke-linejoin="round"/>
<g filter="url(#filter6_d)">
<path d="M413 510L413.116 486.77V448.245C413.116 444.22 416.355 441 420.404 441H509.712C513.761 441 517 444.22 517 448.245V489.53C517 493.555 513.761 496.775 509.712 496.775H424.337L413 510Z" fill="white"/>
</g>
<path d="M484.03 468.648C484.03 471.656 486.459 474.201 489.467 474.201C492.475 474.201 495.02 471.772 495.02 468.764C495.02 465.756 492.591 463.211 489.583 463.211C486.459 463.211 484.03 465.641 484.03 468.648Z" fill="#C6DDF4"/>
<path d="M460.315 468.533C460.315 471.541 462.744 474.086 465.752 474.086C468.76 474.086 471.305 471.656 471.305 468.649C471.305 465.641 468.875 463.096 465.868 463.096C462.86 463.096 460.315 465.525 460.315 468.533Z" fill="#C6DDF4"/>
<path d="M436.715 468.533C436.715 471.541 439.145 474.086 442.152 474.086C445.16 474.086 447.705 471.656 447.705 468.648C447.705 465.641 445.276 463.096 442.268 463.096C439.26 462.98 436.715 465.525 436.715 468.533Z" fill="#C6DDF4"/>
<path d="M439.7 98.8999C456.269 98.8999 469.7 85.4684 469.7 68.8999C469.7 52.3314 456.269 38.8999 439.7 38.8999C423.131 38.8999 409.7 52.3314 409.7 68.8999C409.7 85.4684 423.131 98.8999 439.7 98.8999Z" fill="#8FA2CC"/>
<path d="M447.779 74.6381C447.779 76.3814 447.142 77.8452 445.868 79.0297C444.616 80.1919 442.951 80.8735 440.873 81.0747V83.8907C440.873 84.1812 440.784 84.4159 440.605 84.5947C440.448 84.7958 440.225 84.8964 439.934 84.8964C439.666 84.8964 439.443 84.7958 439.264 84.5947C439.085 84.4159 438.996 84.1812 438.996 83.8907V81.1082C437.632 81.0412 436.28 80.773 434.939 80.3036C433.598 79.8343 432.492 79.1638 431.62 78.2922C431.352 78.0464 431.218 77.7223 431.218 77.32C431.218 77.0742 431.274 76.8619 431.386 76.6831C431.52 76.5043 431.687 76.4149 431.889 76.4149C432.112 76.4149 432.369 76.5266 432.66 76.7501C434.962 78.4487 437.308 79.2979 439.7 79.2979C441.577 79.2979 443.041 78.8956 444.091 78.0911C445.164 77.2641 445.7 76.1132 445.7 74.6381C445.7 73.7665 445.432 73.0625 444.896 72.5261C444.359 71.9674 443.689 71.5428 442.884 71.2522C442.08 70.9617 440.985 70.6376 439.599 70.28C437.9 69.8554 436.526 69.442 435.476 69.0397C434.448 68.615 433.565 67.9781 432.827 67.1288C432.112 66.2572 431.754 65.095 431.754 63.6424C431.754 62.4355 432.056 61.3516 432.66 60.3906C433.263 59.4072 434.112 58.625 435.207 58.0439C436.325 57.4405 437.588 57.0941 438.996 57.0047V54.2222C438.996 53.9317 439.074 53.697 439.23 53.5182C439.409 53.3171 439.644 53.2165 439.934 53.2165C440.202 53.2165 440.415 53.3171 440.571 53.5182C440.75 53.697 440.839 53.9317 440.839 54.2222V57.0047C442.069 57.1164 443.253 57.4069 444.393 57.8763C445.533 58.3456 446.483 58.9937 447.242 59.8207C447.533 60.1112 447.678 60.4353 447.678 60.7928C447.678 61.0387 447.6 61.251 447.444 61.4298C447.309 61.6086 447.153 61.698 446.974 61.698C446.706 61.698 446.449 61.5862 446.203 61.3627C445.153 60.4688 444.147 59.8206 443.186 59.4184C442.225 59.0161 441.096 58.8149 439.8 58.8149C437.968 58.8149 436.515 59.2507 435.442 60.1224C434.369 60.9716 433.833 62.1338 433.833 63.6088C433.833 64.6145 434.123 65.4303 434.705 66.0561C435.286 66.6818 436.001 67.1512 436.85 67.4641C437.722 67.7769 438.873 68.1122 440.303 68.4698C441.934 68.872 443.242 69.2743 444.225 69.6766C445.231 70.0566 446.069 70.6488 446.74 71.4534C447.432 72.2356 447.779 73.2972 447.779 74.6381Z" fill="white"/>
<path d="M439.7 93.8C453.452 93.8 464.6 82.6519 464.6 68.9C464.6 55.1481 453.452 44 439.7 44C425.948 44 414.8 55.1481 414.8 68.9C414.8 82.6519 425.948 93.8 439.7 93.8Z" stroke="white" stroke-width="2" stroke-miterlimit="10" stroke-linecap="round"/>
<defs>
<filter id="filter0_d" x="373" y="13.2805" width="131.82" height="121.239" filterUnits="userSpaceOnUse" color-interpolation-filters="sRGB">
<feFlood flood-opacity="0" result="BackgroundImageFix"/>
<feColorMatrix in="SourceAlpha" type="matrix" values="0 0 0 0 0 0 0 0 0 0 0 0 0 0 0 0 0 0 127 0"/>
<feOffset dx="5" dy="5"/>
<feGaussianBlur stdDeviation="5"/>
<feColorMatrix type="matrix" values="0 0 0 0 0.560784 0 0 0 0 0.635294 0 0 0 0 0.8 0 0 0 0.37 0"/>
<feBlend mode="normal" in2="BackgroundImageFix" result="effect1_dropShadow"/>
<feBlend mode="normal" in="SourceGraphic" in2="effect1_dropShadow" result="shape"/>
</filter>
<filter id="filter1_d" x="494.521" y="47.3208" width="41.0584" height="24.5584" filterUnits="userSpaceOnUse" color-interpolation-filters="sRGB">
<feFlood flood-opacity="0" result="BackgroundImageFix"/>
<feColorMatrix in="SourceAlpha" type="matrix" values="0 0 0 0 0 0 0 0 0 0 0 0 0 0 0 0 0 0 127 0"/>
<feOffset dx="5" dy="5"/>
<feGaussianBlur stdDeviation="5"/>
<feColorMatrix type="matrix" values="0 0 0 0 0 0 0 0 0 0 0 0 0 0 0 0 0 0 0.04 0"/>
<feBlend mode="normal" in2="BackgroundImageFix" result="effect1_dropShadow"/>
<feBlend mode="normal" in="SourceGraphic" in2="effect1_dropShadow" result="shape"/>
</filter>
<filter id="filter2_d" x="487.021" y="20.8208" width="36.9584" height="34.9584" filterUnits="userSpaceOnUse" color-interpolation-filters="sRGB">
<feFlood flood-opacity="0" result="BackgroundImageFix"/>
<feColorMatrix in="SourceAlpha" type="matrix" values="0 0 0 0 0 0 0 0 0 0 0 0 0 0 0 0 0 0 127 0"/>
<feOffset dx="5" dy="5"/>
<feGaussianBlur stdDeviation="5"/>
<feColorMatrix type="matrix" values="0 0 0 0 0 0 0 0 0 0 0 0 0 0 0 0 0 0 0.04 0"/>
<feBlend mode="normal" in2="BackgroundImageFix" result="effect1_dropShadow"/>
<feBlend mode="normal" in="SourceGraphic" in2="effect1_dropShadow" result="shape"/>
</filter>
<filter id="filter3_d" x="474.72" y="0.320312" width="29.7592" height="39.9592" filterUnits="userSpaceOnUse" color-interpolation-filters="sRGB">
<feFlood flood-opacity="0" result="BackgroundImageFix"/>
<feColorMatrix in="SourceAlpha" type="matrix" values="0 0 0 0 0 0 0 0 0 0 0 0 0 0 0 0 0 0 127 0"/>
<feOffset dx="5" dy="5"/>
<feGaussianBlur stdDeviation="5"/>
<feColorMatrix type="matrix" values="0 0 0 0 0 0 0 0 0 0 0 0 0 0 0 0 0 0 0.04 0"/>
<feBlend mode="normal" in2="BackgroundImageFix" result="effect1_dropShadow"/>
<feBlend mode="normal" in="SourceGraphic" in2="effect1_dropShadow" result="shape"/>
</filter>
<filter id="filter4_d" x="0" y="97.3" width="139.7" height="82.3" filterUnits="userSpaceOnUse" color-interpolation-filters="sRGB">
<feFlood flood-opacity="0" result="BackgroundImageFix"/>
<feColorMatrix in="SourceAlpha" type="matrix" values="0 0 0 0 0 0 0 0 0 0 0 0 0 0 0 0 0 0 127 0"/>
<feOffset dx="5" dy="5"/>
<feGaussianBlur stdDeviation="5"/>
<feColorMatrix type="matrix" values="0 0 0 0 0.560784 0 0 0 0 0.635294 0 0 0 0 0.8 0 0 0 0.37 0"/>
<feBlend mode="normal" in2="BackgroundImageFix" result="effect1_dropShadow"/>
<feBlend mode="normal" in="SourceGraphic" in2="effect1_dropShadow" result="shape"/>
</filter>
<filter id="filter5_d" x="42.7" y="70" width="57.8" height="57.8" filterUnits="userSpaceOnUse" color-interpolation-filters="sRGB">
<feFlood flood-opacity="0" result="BackgroundImageFix"/>
<feColorMatrix in="SourceAlpha" type="matrix" values="0 0 0 0 0 0 0 0 0 0 0 0 0 0 0 0 0 0 127 0"/>
<feOffset dx="5" dy="5"/>
<feGaussianBlur stdDeviation="5"/>
<feColorMatrix type="matrix" values="0 0 0 0 0 0 0 0 0 0 0 0 0 0 0 0 0 0 0.04 0"/>
<feBlend mode="normal" in2="BackgroundImageFix" result="effect1_dropShadow"/>
<feBlend mode="normal" in="SourceGraphic" in2="effect1_dropShadow" result="shape"/>
</filter>
<filter id="filter6_d" x="408" y="436" width="124" height="89" filterUnits="userSpaceOnUse" color-interpolation-filters="sRGB">
<feFlood flood-opacity="0" result="BackgroundImageFix"/>
<feColorMatrix in="SourceAlpha" type="matrix" values="0 0 0 0 0 0 0 0 0 0 0 0 0 0 0 0 0 0 127 0"/>
<feOffset dx="5" dy="5"/>
<feGaussianBlur stdDeviation="5"/>
<feColorMatrix type="matrix" values="0 0 0 0 0.560784 0 0 0 0 0.635294 0 0 0 0 0.8 0 0 0 0.37 0"/>
<feBlend mode="normal" in2="BackgroundImageFix" result="effect1_dropShadow"/>
<feBlend mode="normal" in="SourceGraphic" in2="effect1_dropShadow" result="shape"/>
</filter>
<clipPath id="clip0">
<rect width="521" height="624" fill="white" transform="translate(113 38)"/>
</clipPath>
</defs>
</svg>
