<svg width="20" height="23" viewBox="0 0 25 24" fill="none" xmlns="http://www.w3.org/2000/svg">
<rect x="0.708984" width="24" height="24" rx="4" fill="#4d648d"/>
<path d="M12.711 7.83871C10.1571 7.83871 8.09705 9.8305 8.09705 12.2999C8.09705 14.7692 10.1571 16.761 12.711 16.761C15.2649 16.761 17.3249 14.7692 17.3249 12.2999C17.3249 9.8305 15.2649 7.83871 12.711 7.83871ZM12.711 15.2002C11.0606 15.2002 9.71133 13.8995 9.71133 12.2999C9.71133 10.7002 11.0566 9.39953 12.711 9.39953C14.3654 9.39953 15.7107 10.7002 15.7107 12.2999C15.7107 13.8995 14.3614 15.2002 12.711 15.2002ZM18.5899 7.65623C18.5899 8.23474 18.108 8.69677 17.5137 8.69677C16.9153 8.69677 16.4375 8.23086 16.4375 7.65623C16.4375 7.0816 16.9194 6.61569 17.5137 6.61569C18.108 6.61569 18.5899 7.0816 18.5899 7.65623ZM21.6457 8.71231C21.5775 7.31844 21.2482 6.08377 20.1921 5.06652C19.14 4.04927 17.863 3.73089 16.4214 3.661C14.9356 3.57947 10.4823 3.57947 8.99655 3.661C7.55896 3.72701 6.28199 4.04539 5.22588 5.06263C4.16978 6.07988 3.84451 7.31456 3.77223 8.70842C3.6879 10.145 3.6879 14.4508 3.77223 15.8874C3.8405 17.2813 4.16978 18.5159 5.22588 19.5332C6.28199 20.5504 7.55494 20.8688 8.99655 20.9387C10.4823 21.0202 14.9356 21.0202 16.4214 20.9387C17.863 20.8727 19.14 20.5543 20.1921 19.5332C21.2442 18.5159 21.5735 17.2813 21.6457 15.8874C21.7301 14.4508 21.7301 10.1489 21.6457 8.71231ZM19.7263 17.4288C19.4131 18.1898 18.8067 18.7761 18.0156 19.0828C16.831 19.5371 14.0201 19.4322 12.711 19.4322C11.4019 19.4322 8.58695 19.5332 7.40636 19.0828C6.6193 18.78 6.01294 18.1937 5.69571 17.4288C5.22588 16.2834 5.33431 13.5656 5.33431 12.2999C5.33431 11.0341 5.2299 8.31239 5.69571 7.1709C6.00893 6.40991 6.61529 5.82363 7.40636 5.5169C8.59097 5.06263 11.4019 5.16746 12.711 5.16746C14.0201 5.16746 16.835 5.06652 18.0156 5.5169C18.8027 5.81975 19.409 6.40602 19.7263 7.1709C20.1961 8.31628 20.0877 11.0341 20.0877 12.2999C20.0877 13.5656 20.1961 16.2873 19.7263 17.4288Z" fill="#352F44"/>
</svg>
