<svg width="20" height="23" viewBox="0 0 24 23" fill="none" xmlns="http://www.w3.org/2000/svg">
<path d="M21.1684 0H2.54021C1.1378 0 0 1.08608 0 2.42475V20.2062C0 21.5449 1.1378 22.631 2.54021 22.631H21.1684C22.5708 22.631 23.7086 21.5449 23.7086 20.2062V2.42475C23.7086 1.08608 22.5708 0 21.1684 0ZM18.5806 8.02187C18.5912 8.16332 18.5912 8.30981 18.5912 8.45126C18.5912 12.831 15.0984 17.8775 8.7161 17.8775C6.74744 17.8775 4.92166 17.3319 3.38695 16.3923C3.66743 16.4226 3.93733 16.4327 4.2231 16.4327C5.84778 16.4327 7.34015 15.9074 8.53088 15.0183C7.00675 14.988 5.72606 14.0332 5.28682 12.7198C5.82132 12.7956 6.3029 12.7956 6.85328 12.6592C5.26565 12.3511 4.07492 11.0174 4.07492 9.406V9.36559C4.53534 9.61311 5.07513 9.76466 5.64139 9.78487C5.16532 9.4826 4.77506 9.07253 4.50542 8.59126C4.23578 8.10999 4.09516 7.57249 4.09609 7.02672C4.09609 6.41043 4.26544 5.84465 4.56709 5.35465C6.27644 7.36517 8.84311 8.67858 11.722 8.82002C11.2299 6.57208 12.9921 4.74846 15.109 4.74846C16.1092 4.74846 17.0088 5.14754 17.6439 5.79414C18.4271 5.65269 19.1786 5.37486 19.8454 4.99599C19.5861 5.76383 19.041 6.41043 18.3213 6.8196C19.0198 6.74888 19.6972 6.56197 20.3217 6.30434C19.8507 6.9661 19.258 7.55208 18.5806 8.02187Z" fill="#4d648d"/>
</svg>
