<svg xmlns="http://www.w3.org/2000/svg" width="90" height="90" fill="none"><path fill="#7C64BF" d="M30.26 47.24c-.8.33-1.44.93-1.85 1.7-.4.74-.52 1.62-.35 2.46.17.84.62 1.6 1.3 2.14.65.55 1.48.85 2.34.85.47 0 .95-.1 1.4-.3.9-.38 1.63-1.1 2-2 .4-.92.4-1.94 0-2.85-.37-.9-1.1-1.63-2-2-.9-.4-1.93-.4-2.84 0zm2.13 5.15c-.44.08-.88.02-1.27-.18-.4-.2-.7-.54-.86-.94-.16-.4-.18-.86-.05-1.27.13-.4.4-.77.78-1 .22-.1.47-.14.7-.14.44 0 .86.14 1.2.4.34.28.57.66.65 1.1.1.4.02.85-.2 1.23-.2.38-.53.67-.93.83l-.03-.04zM28.25 41.28c.38.9 1.1 1.62 2 2 .45.2.93.3 1.42.3.8 0 1.58-.26 2.22-.74.63-.47 1.1-1.14 1.34-1.9.23-.77.2-1.58-.06-2.34-.26-.75-.77-1.4-1.43-1.84-.66-.44-1.45-.66-2.25-.63-.8.04-1.56.34-2.18.84-.62.5-1.05 1.2-1.25 1.97-.2.78-.13 1.6.17 2.33zM30 39.15c.1-.23.23-.43.4-.6.17-.17.38-.3.6-.4.45-.2.97-.2 1.42 0 .24.08.46.2.65.38.2.17.34.38.44.6.12.25.18.5.18.75s-.04.5-.14.74-.24.45-.43.63c-.17.17-.4.3-.62.4-.24.1-.5.13-.75.12-.25 0-.5-.08-.73-.2-.45-.18-.8-.54-1-1-.2-.45-.2-.96 0-1.42zM37.9 35.65c.8.33 1.7.37 2.5.13.83-.25 1.54-.78 2.02-1.5.48-.7.7-1.56.6-2.42-.08-.85-.45-1.65-1.06-2.26-.6-.6-1.4-.98-2.26-1.07-.86-.08-1.7.13-2.43.6-.7.5-1.24 1.2-1.5 2.02-.23.82-.2 1.7.14 2.5.4.9 1.1 1.62 2 2zm-.3-4.14c.1-.22.24-.42.4-.6.18-.16.38-.3.6-.4.23-.08.48-.13.72-.13s.48.05.7.14c.23.1.44.24.6.4.18.18.32.4.4.6.1.23.15.48.15.72s-.05.5-.14.7c-.1.23-.23.44-.4.6-.17.18-.38.32-.6.4-.34.15-.7.2-1.08.12-.36-.07-.7-.24-.95-.5-.26-.26-.44-.6-.5-.95-.08-.38-.04-.75.1-1.1zM37.9 61.75c.45.18.93.28 1.42.28.55 0 1.1-.12 1.58-.36.5-.23.94-.57 1.28-1 .35-.42.6-.92.73-1.45.15-.53.16-1.1.05-1.62-.1-.54-.33-1.05-.66-1.5-.33-.43-.75-.8-1.23-1.05-.5-.26-1.02-.4-1.57-.44-.55 0-1.1.08-1.6.3-.45.17-.86.45-1.2.8-.35.33-.62.74-.8 1.2-.38.9-.38 1.92 0 2.83.37.9 1.1 1.63 2 2v.02zm-.3-4.14c.2-.44.56-.8 1-1 .24-.08.48-.13.72-.13s.48.05.7.14c.35.15.64.4.85.7.2.3.3.66.3 1.03.02.37-.1.73-.3 1.03-.2.3-.5.55-.84.7-.34.13-.7.17-1.07.1-.36-.08-.7-.26-.95-.52s-.43-.6-.5-.95c-.07-.38-.03-.75.1-1.1zM48.7 61.75c.92.37 1.95.37 2.86 0 .68-.28 1.25-.76 1.66-1.37.4-.6.62-1.33.62-2.06s-.22-1.45-.62-2.06c-.4-.6-.98-1.1-1.66-1.37-.9-.4-1.93-.4-2.84 0-.9.36-1.64 1.1-2.02 2-.37.9-.37 1.93 0 2.84.38.9 1.1 1.63 2 2zm.73-5.14c.22-.1.47-.14.7-.14.25 0 .5.05.72.15.4.17.73.47.93.85.2.38.27.82.18 1.24-.08.4-.3.8-.64 1.07-.33.27-.75.42-1.18.42-.43 0-.85-.16-1.18-.43-.33-.28-.56-.66-.64-1.08-.1-.43-.02-.87.18-1.25.2-.38.53-.68.93-.84zM57.78 54.4c.6 0 1.2-.16 1.75-.45.54-.28 1-.7 1.34-1.2.34-.52.54-1.1.6-1.7.06-.6-.03-1.23-.26-1.8-.17-.44-.45-.85-.8-1.2-.33-.33-.74-.6-1.2-.8-.5-.2-1.04-.3-1.6-.27-.54.03-1.07.18-1.56.44-.48.26-.9.62-1.22 1.06-.33.44-.56.95-.66 1.5-.1.52-.1 1.08.04 1.6.13.54.38 1.04.73 1.46.34.43.78.77 1.28 1 .5.24 1.04.36 1.6.36h-.02zm-1.7-4.4c.13-.34.37-.63.67-.84.3-.2.67-.3 1.04-.3.36-.02.72.1 1.02.3.3.2.55.5.7.84.13.34.17.7.1 1.07-.08.36-.26.7-.52.95-.26.26-.6.44-.95.5-.37.08-.74.04-1.08-.1-.22-.1-.43-.23-.6-.4-.17-.17-.3-.38-.4-.6-.1-.23-.14-.47-.14-.7 0-.25.05-.5.14-.72zM70 20c-.5-.5-1.2-.77-1.9-.77s-1.38.28-1.9.77L52 33.35c-.26-.76-.4-1.55-.4-2.35 0-.5.08-.97.2-1.44.2-.58.27-1.2.2-1.8-.05-.62-.24-1.2-.55-1.74-.74-1-2.2-1.6-4.56-1.85-4.92-.54-9.87.65-14 3.36-.2.14-.32.35-.36.58-.04.24 0 .47.13.67.13.2.32.34.55.4.22.06.46.03.67-.08 3.77-2.5 8.3-3.58 12.8-3.1 2.2.24 3 .74 3.26 1.1.27.38.2 1.08 0 2.1-.13.6-.2 1.2-.22 1.8 0 1.27.28 2.52.8 3.68l-5.77 5.4c-4.2 1.2-4.3 3.7-4.37 5.73 0 1.36-.1 2.54-1.13 3.58-.1.1-.18.22-.23.36-.04.13-.06.28-.04.42.02.14.07.27.15.4.08.1.2.2.3.28.84.44 1.78.66 2.72.63 1.54-.02 3.05-.43 4.38-1.2.96-.48 1.8-1.2 2.4-2.1.6-.9.96-1.95 1.05-3.03l5.32-5.67c1.16.5 2.4.78 3.68.8.6-.04 1.2-.13 1.77-.27 1-.2 1.65-.3 2.08 0 .43.3.87 1.07 1.1 3.27.35 3.1-.06 6.25-1.2 9.17-1.13 2.9-2.94 5.5-5.3 7.57-2.34 2.08-5.14 3.55-8.18 4.3-3.03.75-6.2.76-9.24.03s-5.86-2.18-8.22-4.23c-2.35-2.05-4.2-4.64-5.34-7.54-1.15-2.9-1.58-6.05-1.26-9.16.3-3.1 1.37-6.1 3.1-8.7.1-.22.15-.46.1-.7-.06-.23-.2-.43-.4-.56-.1-.07-.22-.1-.34-.14-.1-.02-.24-.02-.36 0-.12.03-.23.08-.33.15-.1.07-.18.16-.25.26-1.88 2.87-3.04 6.14-3.4 9.55-.33 3.4.14 6.84 1.4 10.02 1.26 3.18 3.27 6 5.85 8.26 2.6 2.24 5.67 3.83 9 4.63 3.33.8 6.8.8 10.12-.03 3.3-.82 6.4-2.43 8.96-4.7 2.57-2.25 4.56-5.1 5.8-8.3 1.24-3.18 1.7-6.62 1.32-10.02-.25-2.36-.84-3.8-1.85-4.55-.53-.3-1.12-.5-1.73-.56-.6-.07-1.23 0-1.8.2-.47.12-.93.18-1.4.2-.8 0-1.6-.14-2.35-.4L70 23.8c.5-.5.78-1.18.78-1.9 0-.7-.28-1.4-.78-1.9zM45.62 48.7c-1.26.75-2.72 1.07-4.17.9.58-1.13.85-2.4.8-3.68.08-1.84.12-3.1 2.72-3.92l3.13 3.13c-.1.75-.37 1.47-.8 2.1-.43.62-1 1.13-1.68 1.48zm23-26.16L49 43.44 46.57 41l20.9-19.64c.07-.08.16-.14.26-.18.1-.04.2-.06.32-.06.1 0 .22.02.32.06.1.04.2.1.27.18.08.08.14.17.18.27.04.1.06.2.06.32 0 .1-.02.22-.06.32-.04.1-.1.2-.18.27h-.02zM30.15 31.9c.25 0 .48-.1.66-.26.18-.18.28-.4.28-.66 0-.25-.1-.48-.27-.66-.17-.17-.4-.27-.65-.27s-.48.1-.66.27c-.18.18-.28.4-.28.66 0 .25.1.48.27.66.17.17.4.27.65.27z"/></svg>