<svg xmlns="http://www.w3.org/2000/svg" width="91" height="90" fill="none"><path fill="#7C64BF" d="M45.64 39.6h-15.3c-.18 0-.36.04-.53.1-.15.08-.3.2-.43.32-.12.13-.22.28-.28.45-.08.17-.1.35-.1.53v2.7c0 .36.14.7.4.95.25.26.6.4.95.4.36 0 .7-.14.95-.4.26-.25.4-.6.4-.95v-1.4h4.95v12.6h-.9c-.36 0-.7.14-.95.4-.26.25-.4.6-.4.95 0 .36.14.7.4.95.25.26.6.4.95.4h4.5c.36 0 .7-.14.95-.4.26-.25.4-.6.4-.95 0-.36-.14-.7-.4-.95-.25-.26-.6-.4-.95-.4h-.9V42.3h5v1.35c0 .36.14.7.4.95.25.26.6.4.95.4.36 0 .7-.14.95-.4.26-.25.4-.6.4-.95V41c0-.2-.02-.37-.1-.55-.06-.17-.16-.33-.3-.46-.13-.14-.3-.25-.46-.3-.2-.08-.37-.1-.56-.1zM60 39.6h-8.1c-.36 0-.7.14-.95.4-.26.25-.4.6-.4.95 0 .36.14.7.4.95.25.26.6.4.95.4H60c.36 0 .7-.14.95-.4.26-.25.4-.6.4-.95 0-.36-.14-.7-.4-.95-.25-.26-.6-.4-.95-.4zM60 46.8h-8.1c-.36 0-.7.14-.95.4-.26.25-.4.6-.4.95 0 .36.14.7.4.95.25.26.6.4.95.4H60c.36 0 .7-.14.95-.4.26-.25.4-.6.4-.95 0-.36-.14-.7-.4-.95-.25-.26-.6-.4-.95-.4zM60 54h-8.1c-.36 0-.7.14-.95.4-.26.25-.4.6-.4.95 0 .36.14.7.4.95.25.26.6.4.95.4H60c.36 0 .7-.14.95-.4.26-.25.4-.6.4-.95 0-.36-.14-.7-.4-.95-.25-.26-.6-.4-.95-.4zM61.84 25.2h-33.3c-1.32 0-2.58.52-3.52 1.45-.93.92-1.47 2.18-1.48 3.5v29.7c0 1.32.55 2.58 1.48 3.5.94.93 2.2 1.45 3.52 1.45h33.3c1.32 0 2.58-.52 3.52-1.45.93-.92 1.47-2.18 1.48-3.5v-29.7c0-1.32-.55-2.58-1.48-3.5-.94-.93-2.2-1.45-3.52-1.45zm-33.3 2.7h33.3c.6 0 1.17.24 1.6.66.4.42.65 1 .65 1.6v1.34H26.3v-1.35c0-.6.23-1.17.65-1.6.42-.4 1-.65 1.6-.65zm33.3 34.2h-33.3c-.6 0-1.17-.24-1.6-.66-.4-.42-.65-1-.65-1.6V34.2h37.8v25.65c0 .6-.25 1.17-.67 1.6-.42.4-1 .65-1.6.65z"/></svg>