<svg xmlns="http://www.w3.org/2000/svg" width="91" height="90" fill="none"><path fill="#7C64BF" d="M69.52 46.4c0-1.4-.36-2.76-1.04-3.98-.67-1.2-1.65-2.23-2.83-2.96.53-1.1.8-2.3.8-3.52 0-3.53-4.35-6.38-7.2-7.88-.15-1.6-.75-3.1-1.73-4.35-.98-1.24-2.3-2.2-3.82-2.7-1.5-.52-3.13-.6-4.67-.2-1.55.4-2.95 1.2-4.03 2.38-.76-.84-1.68-1.5-2.72-1.97-1.03-.45-2.15-.7-3.28-.7-1.4 0-2.8.37-4 1.06-1.24.68-2.27 1.67-3 2.87-.68 1.12-1.08 2.38-1.16 3.7l-.63.32c-.88.48-1.74 1.02-2.57 1.6-2.65 1.93-4 3.9-4 5.87 0 1.22.27 2.42.8 3.52-1.16.72-2.12 1.7-2.8 2.9-.67 1.18-1.04 2.5-1.07 3.87-.02 1.38.3 2.72.92 3.93.63 1.2 1.56 2.24 2.7 3-.36.93-.55 1.92-.55 2.92 0 1.43.37 2.84 1.1 4.1.7 1.23 1.74 2.26 3 2.97 1.05 3.7 5.3 6.35 10.27 6.35 2.5 0 4.92-.72 7-2.1 2.1 1.4 4.55 2.14 7.06 2.1 5 0 9.22-2.65 10.3-6.35 1.67-.97 2.95-2.5 3.6-4.35.65-1.83.63-3.83-.07-5.65 1.1-.74 2.02-1.74 2.65-2.9.63-1.18.97-2.5.97-3.83zM38 67.57c-4.2 0-7.88-2.27-8.52-5.3-.03-.13-.1-.26-.18-.37-.1-.1-.2-.2-.33-.26-.75-.38-1.4-.9-1.95-1.54s-.95-1.38-1.2-2.18c.8.4 1.67.6 2.56.6 1.32-.02 2.6-.48 3.62-1.3.14-.07.27-.16.38-.28.1-.12.17-.26.2-.4.05-.17.05-.32 0-.48-.02-.15-.1-.3-.2-.4-.1-.13-.22-.23-.36-.3-.15-.05-.3-.08-.46-.07-.16 0-.3.04-.44.12-.14.08-.25.2-.34.32-.75.6-1.7.92-2.68.85-.97-.07-1.88-.5-2.55-1.2.08-.77.3-1.5.66-2.2.12-.22.13-.48.06-.7-.08-.25-.24-.46-.46-.58-1.04-.54-1.9-1.36-2.5-2.37-.58-1-.88-2.16-.85-3.33.04-1.17.4-2.3 1.04-3.28.64-.97 1.55-1.75 2.6-2.23.14-.05.25-.13.34-.23.1-.1.15-.23.2-.36.03-.12.03-.26 0-.4 0-.13-.06-.26-.13-.38-.64-1-1-2.18-1-3.38 0-2.27 3.27-4.53 5.44-5.72.4 2 1.54 3.8 3.2 5 .2.14.45.2.7.16.24-.04.46-.17.62-.36.14-.2.2-.46.16-.7-.04-.26-.16-.48-.36-.64-1.06-.78-1.84-1.87-2.25-3.12-.4-1.25-.4-2.6.02-3.84.4-1.25 1.2-2.34 2.26-3.1 1.06-.8 2.34-1.2 3.65-1.2 1 0 1.97.23 2.86.7.87.45 1.63 1.12 2.2 1.93v.1c0 .63 0 2 0 5.2h-5.33c-.2 0-.37.05-.52.16-.16.1-.28.26-.36.43-.08.17-.1.35-.05.53.03.18.12.34.25.47.72.72 1.12 1.7 1.12 2.72 0 1-.4 2-1.12 2.7-.73.7-1.7 1.1-2.7 1.1-1.02 0-2-.4-2.72-1.1-.18-.16-.43-.26-.68-.26-.25 0-.5.1-.68.26-.17.18-.26.43-.26.67 0 .25.1.5.26.68.15.16.3.3.47.43l-2.44 2.48c-.63.64-.98 1.5-.98 2.38 0 .9.35 1.74.98 2.37.64.6 1.5.96 2.37.96.88 0 1.73-.34 2.37-.95.14-.07.27-.17.36-.3.1-.13.16-.27.2-.43.02-.16 0-.32-.04-.47-.05-.15-.13-.3-.24-.4-.12-.1-.25-.2-.4-.25-.15-.05-.32-.06-.47-.04-.15.03-.3.1-.43.18-.12.1-.23.22-.3.36-.27.25-.63.38-1 .38s-.72-.13-1-.38c-.26-.27-.4-.63-.4-1s.14-.73.4-1l2.8-2.86s1 .24 1.1.26c1.03.13 2.07 0 3.02-.42.94-.4 1.76-1.06 2.36-1.9.6-.82 1-1.8 1.1-2.83.1-1.02-.1-2.06-.53-3H44c0 2.46 0 5.7 0 10h-2.34V42c.04-.15.05-.3.02-.46-.02-.15-.1-.3-.18-.42-.1-.12-.2-.22-.35-.3-.14-.06-.3-.1-.45-.1-.16 0-.3.04-.45.1-.14.08-.26.18-.35.3-.1.12-.16.27-.18.42-.03.15-.02.3.02.46v2.4c.06.2.2.4.36.52.17.13.38.2.6.2.22 0 .43-.07.6-.2.17-.13.3-.3.36-.52v-.24H44c0 .45 0 4.7 0 6.33h-2.68c-.17-.47-.43-.9-.77-1.24-.3-.3-.68-.56-1.1-.74-.4-.17-.83-.26-1.27-.26-.44 0-.88.1-1.3.26-.4.17-.76.42-1.07.74-.1.2-.13.4-.1.62.03.2.13.4.28.56.15.16.35.26.56.3.2.02.43-.02.62-.12 1.27-1.27 3.35.7 2 2-.1.1-.2.2-.27.33-.08.12-.12.26-.13.4 0 .15.02.3.07.42.05.14.13.26.23.36.1.1.23.17.37.22.13.05.27.07.42.06.14 0 .28-.05.4-.12.13-.07.24-.16.32-.28.44-.45.75-1 .9-1.6H44c0 2.2 0 4.28 0 6.13h-7.5c-.26 0-.5.1-.7.28-.6.64-.96 1.5-.96 2.38 0 .9.35 1.74.97 2.37.65.6 1.5.95 2.4.95.87 0 1.72-.34 2.36-.95.1-.2.14-.4.1-.62-.02-.2-.12-.4-.28-.56-.15-.15-.35-.25-.56-.28-.2-.04-.43 0-.62.1-.27.25-.63.4-1 .4s-.73-.15-1-.4c-.23-.23-.37-.52-.4-.84-.05-.3.02-.64.18-.9h7.05c0 1.62 0 5 0 5.3-1.78 1.2-3.88 1.83-6.03 1.82zm26.28-15.66c-.22.12-.38.33-.46.57-.07.22-.06.48.05.7.38.74.6 1.54.68 2.36.07.82-.03 1.65-.28 2.44-.25.78-.66 1.5-1.2 2.13-.54.63-1.2 1.14-1.93 1.5-.13.08-.24.17-.33.28-.07.12-.14.25-.17.4-.64 3-4.3 5.28-8.52 5.28-2.16.03-4.3-.6-6.1-1.84v-5.3h3.47c.2.78.65 1.47 1.3 1.94s1.45.7 2.25.62c.8-.07 1.55-.43 2.1-1 .57-.58.9-1.34.95-2.14.05-.8-.2-1.6-.7-2.24-.48-.64-1.18-1.08-1.97-1.24-.78-.16-1.6-.03-2.3.36-.7.4-1.25 1.02-1.52 1.78H46v-6.14h8.9c.22.77.72 1.44 1.4 1.88.68.43 1.5.6 2.3.5.8-.13 1.52-.53 2.05-1.14.53-.6.82-1.4.82-2.2 0-.8-.3-1.58-.82-2.2-.53-.6-1.26-1-2.06-1.12-.8-.12-1.62.06-2.3.5-.68.43-1.18 1.1-1.4 1.87H46v-6.33h2.1c.23.77.73 1.43 1.4 1.87.7.44 1.5.6 2.3.5.8-.12 1.52-.52 2.04-1.13.53-.6.82-1.4.82-2.2 0-.8-.3-1.57-.82-2.18-.52-.62-1.25-1.02-2.05-1.13-.8-.12-1.6.05-2.3.48-.67.44-1.17 1.1-1.4 1.87H46v-10h2.8c.23.77.73 1.43 1.4 1.86.68.43 1.5.6 2.28.5.8-.13 1.52-.52 2.05-1.13.52-.6.8-1.38.8-2.2 0-.8-.28-1.56-.8-2.17-.53-.6-1.25-1-2.05-1.12-.8-.12-1.6.06-2.28.5-.67.42-1.17 1.08-1.4 1.85h-2.77V25c.78-1.08 1.87-1.88 3.14-2.3 1.26-.42 2.62-.43 3.9-.03 1.25.4 2.36 1.2 3.15 2.26.8 1.07 1.23 2.36 1.24 3.7 0 .2.07.4.2.55.1.17.28.3.47.36 4.08 2.07 6.52 4.45 6.52 6.36 0 2.38-1.56 5.2-4.17 5.27-.25 0-.5.12-.67.3-.08.1-.15.2-.2.32-.04.1-.06.23-.05.36 0 .13.03.25.08.37.05.1.13.22.22.3.1.1.2.16.33.2.12.04.24.06.37.05 1.6-.1 3.1-.82 4.2-2 .95.58 1.72 1.4 2.23 2.37.52.97.78 2.06.74 3.16-.04 1.1-.37 2.2-.96 3.12-.6.93-1.4 1.7-2.4 2.2h-.08zm-13 7.75c0-.28.08-.56.24-.8.16-.24.4-.42.65-.53.26-.1.55-.14.83-.08.28.05.54.2.74.4.2.2.34.45.4.73.05.27.02.56-.1.82-.1.26-.28.5-.52.65-.24.16-.52.24-.8.24-.2 0-.38-.02-.56-.1-.18-.06-.34-.17-.47-.3-.15-.14-.26-.3-.33-.47-.07-.18-.1-.37-.1-.56zm5.36-8.25c0-.28.08-.56.24-.8.16-.24.4-.42.65-.53.26-.12.55-.15.83-.1.28.06.54.2.74.4.2.2.34.46.4.74.05.28.02.57-.1.83-.1.26-.28.5-.52.65-.24.16-.52.24-.8.24-.2 0-.38-.03-.56-.1-.17-.08-.33-.18-.47-.32-.13-.13-.24-.3-.32-.47-.07-.17-.1-.36-.1-.55zm-6.8-8.24c0-.28.08-.56.24-.8.16-.24.4-.42.65-.53.26-.1.55-.14.83-.08.28.05.54.2.74.4.2.2.34.45.4.73.05.28.02.57-.1.83-.1.26-.28.5-.52.65-.24.16-.52.24-.8.24-.2 0-.38-.03-.56-.1-.18-.07-.34-.18-.47-.3-.14-.15-.25-.3-.32-.48s-.1-.37-.1-.56zm.67-11.92c0-.28.1-.56.25-.8.16-.24.4-.42.65-.53.26-.1.55-.14.83-.08.28.05.54.2.74.4.2.2.34.45.4.73.05.28.02.57-.1.83-.1.27-.28.5-.52.66-.24.16-.52.24-.8.24-.2 0-.38-.03-.56-.1-.18-.08-.35-.18-.48-.3-.14-.15-.24-.3-.32-.48-.07-.18-.1-.37-.1-.56zM32 53.1c-.12-.02-.24 0-.35.03-.12.04-.22.1-.3.2-.17.14-.27.35-.3.57 0 .22.07.44.2.6.08.1.17.17.27.22.1.06.22.1.33.1h.08c.22 0 .42-.08.58-.23.17-.15.27-.35.3-.57 0-.23-.06-.46-.2-.63-.16-.18-.37-.3-.6-.3zM54.06 42.16c-.08-.08-.18-.15-.28-.2-.1-.04-.22-.06-.33-.06-.12 0-.23.02-.34.07-.1.04-.2.1-.27.2-.08.07-.14.16-.18.27-.05.1-.06.22-.06.33 0 .1 0 .23.06.33.04.1.1.2.2.28.15.16.37.25.6.25.1 0 .22-.03.33-.07.1-.05.2-.12.28-.2.15-.16.23-.38.23-.6 0-.23-.08-.44-.24-.6z"/></svg>