<svg xmlns="http://www.w3.org/2000/svg" width="91" height="90" fill="none"><path fill="#7C64BF" d="M69.78 44.16c-.03-.25-.15-.5-.33-.67-.18-.2-.42-.3-.67-.34-4.66-.4-7.43-1.55-8.45-3.5-1.6-3.1.83-8.55 5-15.78.14-.24.2-.52.13-.8-.05-.26-.2-.5-.42-.67-.22-.16-.5-.25-.77-.23-.27.02-.53.14-.73.33C57 29 51 32.13 47 31.12c-2.38-.6-4.1-2.7-5.15-6.2-.07-.24-.23-.45-.44-.6-.2-.15-.45-.22-.7-.2-.27 0-.52.12-.72.3-.2.18-.3.43-.35.7-.18 1.14-.34 2.23-.5 3.2-.6 4.1-1 7.1-2.26 7.7-1.27.63-4.48-.82-6.75-2-.23-.1-.48-.14-.73-.1-.26.05-.5.18-.66.37-.16.18-.26.42-.28.68 0 .25.06.5.2.7 1.46 2.1 3.35 5.07 2.86 6.45-.5 1.38-3.36 2.1-7.36 3.24l-3.12.9c-.25.07-.46.23-.6.44-.16.22-.23.48-.22.74.02.25.12.5.3.7.17.18.4.3.66.35 3.45.54 5.5 1.56 6.27 3.1 1.34 2.65-.87 7.3-4.13 13.55-.12.23-.16.5-.1.75.04.25.18.48.38.65.2.16.46.25.7.25.27 0 .53-.1.73-.25 6-4.6 10.47-7.5 13-6.67 1.64.53 3 2.74 4.27 7.17.07.24.2.45.4.6.2.14.44.22.7.22h.07c.25-.03.5-.15.67-.33.18-.18.3-.42.33-.67.53-3.27 1.63-5.3 3.38-6.17 3.4-1.7 9.3.88 15.15 3.93.23.12.5.16.75.1.26-.04.5-.17.66-.37.17-.2.27-.45.27-.7 0-.27-.07-.52-.23-.73-4-5.3-5.56-9.15-4.7-11.76.78-2.4 3.6-4.18 9.14-5.82.27-.06.5-.2.67-.43.16-.22.25-.5.23-.76zm-12.12 6.32c-.88 2.7-.08 6 2.5 10.18-5.5-2.54-9.93-3.65-13.25-2-1.67.9-2.95 2.38-3.6 4.17-1.26-3-2.66-4.55-4.52-5.16-.54-.17-1.1-.26-1.67-.26-1.65.1-3.26.57-4.7 1.4-1.7.87-3.32 1.87-4.87 3 2.3-4.85 3.4-8.5 2-11.34-.84-1.52-2.2-2.67-3.85-3.24 4.5-1.27 7.22-2.16 8-4.42.47-1.34.18-2.92-1-5.2 2.42.93 4 1 5.28.38 2.17-1.1 2.7-4 3.4-8.68.54.98 1.27 1.84 2.16 2.52.88.7 1.9 1.2 2.98 1.48 2.5.64 5.45.1 8.74-1.58 1.76-.94 3.44-2.04 5-3.28-2.54 5.2-3.52 9.2-2 12.2 1 1.9 2.9 3.22 5.84 4-3.6 1.6-5.64 3.47-6.42 5.84zM56 47c-4.64-3-5.5-5-3.56-8 .14-.22.2-.48.17-.74-.02-.25-.13-.5-.3-.68-.2-.18-.43-.3-.7-.33-.24-.03-.5.02-.72.16-.66.42-2.65 1.65-3.34 1.36-.7-.3-1.27-2.6-1.46-3.37-.05-.24-.18-.44-.35-.6-.18-.15-.4-.25-.63-.28-.23-.02-.47.03-.67.14-.2.1-.37.3-.47.5-2.26 4.6-4 6.36-8.6 8.6-.22.1-.4.28-.5.48-.12.2-.17.44-.14.68.02.23.12.45.27.62.15.18.35.3.58.36.95.23 1.53.6 1.72 1.06.55 1.37-1.34 4.38-2.87 6.8-.12.22-.17.47-.13.72.03.25.15.48.32.65.18.18.4.3.66.33.25.03.5-.02.72-.14 2.42-1.53 5.43-3.42 6.8-2.87.47.2.83.77 1.06 1.72.06.23.18.43.36.6.17.14.4.24.62.26.24.03.47-.02.68-.13.2-.12.37-.3.47-.5 2.2-4.47 5.1-5.35 9.37-5.35.23 0 .46-.1.64-.24.2-.13.34-.33.4-.55.07-.23.07-.47 0-.7-.07-.2-.2-.4-.4-.55zm-10.9 4.48c-.38-.5-.87-.87-1.44-1.1-.45-.18-.93-.26-1.4-.26-1.3.08-2.54.45-3.66 1.08.93-1.86 1.4-3.58.8-5.06-.2-.53-.55-1-1-1.37 2.65-1.4 4.84-3.54 6.3-6.15.17.5.43.96.78 1.35.34.4.76.7 1.23.94.85.3 1.76.27 2.58-.07-.43 2.52.92 4.5 2.93 6.2-1.42.18-2.8.65-4.03 1.4-1.22.77-2.26 1.8-3.05 3l-.03.05z"/></svg>