<svg xmlns="http://www.w3.org/2000/svg" width="90" height="91" fill="none"><path fill="#7C64BF" d="M49.27 61.39c0-.03 0-.06 0-.09.17-.45.26-.92.26-1.4v-.36a1.28 1.28 0 00-1.28-1.28h-1c.13-.32.2-.66.19-1 0-.34-.06-.68-.19-1h.34a2.56 2.56 0 001.59-4.58c.05-.15.08-.31.08-.47v-.14a6.78 6.78 0 00-6.77-6.77h-7v-1.92L39.9 40a.78.78 0 000-1.34l-4.81-3a.77.77 0 00-1.18.66v8.06h-5.26V43l3.61-1.92a.78.78 0 00.41-.67.77.77 0 00-.39-.68l-4-2.35a.78.78 0 00-1.17.67v6.32h-.39A6.77 6.77 0 0020 51.14s0 .32 0 .41a2.57 2.57 0 001.31 4.78h.33c-.13.32-.2.66-.19 1 0 .34.06.68.19 1h-1a1.28 1.28 0 00-1.27 1.28v.36c.02.72.24 1.42.63 2.03v2.15a6.09 6.09 0 006 6.08h17.19a6.09 6.09 0 006.08-6.09v-2.75zM35.49 37.7L38 39.25l-2.51 1.42V37.7zm-6.84 1.71l1.66 1-1.66.88v-1.88zM45.9 57.3a1 1 0 01-1 1h-4.64a1 1 0 110-1.93h4.68a1 1 0 01.96.93zm-13.8-1h4.68a1 1 0 010 1.93H32.1a1 1 0 110-1.93zm3.9 3.51l-3.21 3.59-4-3.59H36zm-15.71-6.05a1 1 0 011-1h20.06a.77.77 0 00.55-1.32.78.78 0 00-.55-.23H21.5v-.05a5.22 5.22 0 015.21-5.22H42.5a5.22 5.22 0 015.22 5.22v.05h-3.07a.78.78 0 00-.55 1.33.77.77 0 00.55.22h3a1 1 0 110 2H21.28a1 1 0 01-1-1h.01zM23 57.3a1 1 0 011-1h4.68a1 1 0 010 1.93h-4.74a1 1 0 01-.94-.93zm20.22 11.38H26a4.54 4.54 0 01-4.53-4.54v-.72c.2.1.4.2.62.26a3.92 3.92 0 002.94-.2l.73-.35L26 63a.78.78 0 00.04-1.43.77.77 0 00-.59-.02c-.12.04-.23.08-.34.14l-.72.35a2.44 2.44 0 01-3.02-.75c-.3-.41-.46-.92-.46-1.43v-.09h5.5l5.57 5a1.2 1.2 0 001.71-.1l4.36-4.87H48v.09a2.42 2.42 0 01-3.48 2.18l-.73-.35a3.92 3.92 0 00-3.38 0l-.8.36c-.38.18-.8.25-1.23.21a.77.77 0 00-.14 1.54 3.9 3.9 0 002-.34l.79-.36a2.39 2.39 0 012.07 0l.72.35c.92.44 1.97.52 2.94.2.35-.1.7-.26 1-.46v.92a4.54 4.54 0 01-4.53 4.54h-.01z"/><path fill="#7C64BF" d="M65.81 30.28h-.56l-.92-2.75a1.26 1.26 0 00-1.2-.87h-7.25v-3.07L58.45 21a1.07 1.07 0 00.33-.79 1.09 1.09 0 00-.33-.8l-1.69-1.7a1.14 1.14 0 00-1.59 0L51.92 21a2.3 2.3 0 00-.69 1.64v4H44a1.28 1.28 0 00-1.21.87l-.92 2.75h-.55a1.49 1.49 0 00-1.49 1.48V34a1.49 1.49 0 001.33 1.47l.25 6.65a.76.76 0 001.06.67.76.76 0 00.45-.73l-.24-6.58h16.24a.78.78 0 00.6-1.36.78.78 0 00-.6-.19H41.37v-2.06h24.37v2.06h-3.52a.78.78 0 000 1.55h2.2l-1.08 28.88h-11.8a.78.78 0 00-.55 1.33.77.77 0 00.55.22h11.75l-.09 2.36a.46.46 0 01-.46.45h-13a.76.76 0 00-.77.77.77.77 0 00.77.78h13a2 2 0 002-1.94L66 35.43A1.48 1.48 0 0067.29 34v-2.2a1.48 1.48 0 00-1.48-1.48v-.04zm-13-7.65a.76.76 0 01.23-.55l3-3 1.1 1.1-2.5 2.49a.83.83 0 00-.23.55v3.39h-1.63l.03-3.98zm-9.28 7.65l.69-2.07h18.71l.69 2.07H43.53z"/><path fill="#7C64BF" d="M55.62 59.34a.78.78 0 000-1.55h-2.16a1.38 1.38 0 00-1.38 1.39v2.06a1.38 1.38 0 001.38 1.39h7.07a1.39 1.39 0 001.39-1.39v-2.06a1.39 1.39 0 00-1.39-1.39h-1.61a.78.78 0 000 1.55h1.45v1.74h-6.74v-1.74h1.99z"/></svg>