<svg xmlns="http://www.w3.org/2000/svg" width="91" height="91" fill="none"><path fill="#7C64BF" d="M48.83 64.45c-.2 0-.37.05-.52.16-.15.1-.27.26-.34.43-.08.17-.1.35-.06.54.03.18.1.35.24.48.13.14.3.23.48.28.18.04.37.03.54-.04.17-.07.33-.2.44-.34.1-.15.17-.32.18-.5 0-.14 0-.27-.06-.4-.04-.1-.1-.22-.2-.3-.1-.1-.2-.18-.3-.23-.13-.05-.26-.08-.4-.08zM62.14 25.85H59.3v-1.52c0-.76-.32-1.48-.85-2.02-.54-.52-1.26-.82-2.02-.82h-22.8c-.77 0-1.5.3-2.02.84-.53.53-.83 1.25-.83 2v1.53H27.9c-.74 0-1.47.3-2 .84-.54.52-.84 1.24-.84 2 0 6.2 2.9 10.73 7.6 12 1.6 3.54 4.16 6.56 7.38 8.73.37.26.67.6.88 1 .2.4.3.85.3 1.3V57c-.8.22-1.53.7-2.05 1.36-.5.67-.8 1.5-.8 2.33h-.95c-.76 0-1.48.3-2 .83-.55.53-.85 1.25-.85 2v5.7c0 .14 0 .27.05.4.05.1.12.22.2.32.1.1.2.17.32.22.12.05.25.07.38.07h19c.13 0 .27 0 .4-.06.12-.05.23-.12.33-.2.1-.1.16-.22.2-.35.06-.12.08-.26.07-.4v-5.7c0-.75-.3-1.47-.84-2-.53-.54-1.25-.84-2-.84h-.96c0-.85-.28-1.67-.8-2.34-.5-.66-1.23-1.14-2.05-1.35v-5.23c0-.45.1-.9.3-1.3.2-.4.52-.74.9-1 3.2-2.17 5.76-5.2 7.37-8.73 4.7-1.27 7.6-5.8 7.6-12 0-.38-.08-.76-.22-1.1-.15-.36-.36-.68-.63-.95-.28-.28-.6-.5-.95-.64s-.73-.2-1.1-.2zM27 28.7c0-.26.12-.5.3-.68.2-.17.44-.27.7-.27h2.86V32c0 2.15.34 4.3 1 6.34-3.14-1.5-4.86-4.96-4.86-9.64zm25.67 33.85c.25 0 .48.12.66.3.17.17.28.4.3.65v4.75H36.46V63.5c0-.25.12-.48.3-.66.17-.17.4-.28.65-.3h15.25zM57.4 32c0 3.13-.77 6.2-2.23 8.97-1.47 2.76-3.58 5.12-6.17 6.88-.62.43-1.13 1.02-1.48 1.7-.35.67-.53 1.42-.52 2.18v6.07c0 .25.12.48.3.66.17.17.4.28.65.3.5 0 1 .2 1.34.55.35.36.55.85.55 1.35h-9.5c0-.5.18-.96.52-1.32.34-.35.8-.56 1.3-.58h.07c.25 0 .48-.12.66-.3.17-.17.28-.4.3-.65v-6.07c0-.76-.18-1.5-.53-2.2-.35-.66-.86-1.25-1.48-1.68-3.07-2.05-5.46-4.95-6.9-8.34-1.02-2.36-1.55-4.92-1.54-7.5v-7.67c0-.26.1-.5.28-.7.17-.18.4-.3.67-.3h22.82c.27 0 .52.1.7.3.2.18.3.43.3.7L57.4 32zm.9 6.34c.67-2.05 1-4.2 1-6.34v-4.25h2.86c.25 0 .48.12.66.3.17.17.28.4.3.65-.03 4.68-1.78 8.14-4.8 9.64zM52.55 32.7c-.05-.16-.16-.3-.3-.42-.13-.1-.3-.2-.47-.2l-4.1-.6-1.84-3.73c-.08-.16-.2-.3-.35-.38-.16-.1-.33-.15-.5-.15-.2 0-.36.05-.5.15-.16.1-.28.22-.36.38l-1.84 3.72-4.1.6c-.17.03-.34.1-.47.22-.14.1-.24.25-.3.4-.05.18-.06.37-.02.54.05.18.14.34.27.47l3 2.9-.7 4.1c-.02.16 0 .34.06.5.07.17.18.3.32.42.15.1.32.16.5.17.17 0 .34-.03.5-.1l3.67-1.94 3.67 1.93c.15.07.32.1.5.1.18-.02.35-.08.5-.18.13-.1.25-.25.3-.4.08-.18.1-.36.07-.53l-.7-4.1 3-2.9c.12-.13.2-.3.23-.47.03-.17 0-.35-.05-.52zm-4.9 2.87c-.1.1-.2.24-.24.38-.03.15-.05.3-.02.46l.46 2.7-2.4-1.27c-.14-.07-.3-.1-.45-.1-.16 0-.3.03-.45.1l-2.4 1.26.45-2.7c.03-.14.02-.3-.03-.44-.05-.15-.13-.28-.24-.4l-1.95-1.9 2.7-.38c.14-.03.3-.1.4-.18.14-.1.24-.2.3-.34l1.2-2.44 1.22 2.44c.07.14.17.26.3.35.1.1.26.16.4.18l2.7.4-1.94 1.9zM45 64.45h-3.8c-.26 0-.5.1-.68.28-.18.18-.28.42-.28.67 0 .25.1.5.28.67.18.18.42.28.67.28H45c.25 0 .5-.1.67-.28.18-.18.28-.42.28-.67 0-.25-.1-.5-.28-.67-.18-.18-.42-.28-.67-.28z"/></svg>