<svg xmlns="http://www.w3.org/2000/svg" width="91" height="91" fill="none"><path fill="#7C64BF" d="M61.4 46.6l.12.34c.3.86.9 1.58 1.67 2.04.77.47 1.7.64 2.6.5.88-.16 1.7-.63 2.28-1.32.6-.7.9-1.57.9-2.48 0-.9-.3-1.8-.9-2.48-.6-.7-1.4-1.16-2.3-1.3-.9-.16-1.8 0-2.6.48-.77.46-1.36 1.18-1.66 2.04l-.12.33h-7.2V41H59l3-5.13.45.46c.62.62 1.43 1 2.3 1.1.86.1 1.73-.1 2.47-.58.74-.46 1.3-1.17 1.57-2 .28-.82.27-1.72-.02-2.54-.3-.8-.86-1.5-1.6-1.96-.75-.46-1.63-.65-2.5-.54-.86.1-1.66.5-2.27 1.13-.6.63-.98 1.44-1.06 2.3l-.06.2-3.37 5.7h-3.67v-2.6h-2.6V32.9l5.94-3.44c.87-.1 1.68-.47 2.3-1.07.63-.62 1.02-1.43 1.13-2.3.1-.86-.08-1.73-.54-2.48-.46-.74-1.16-1.3-1.98-1.6-.82-.3-1.7-.3-2.54 0-.82.27-1.53.83-2 1.56-.46.74-.66 1.6-.57 2.48.1.86.48 1.67 1.1 2.3l.46.45-5.14 3v4.7h-3.7v-7.15l.33-.1c.86-.3 1.6-.9 2.05-1.68.47-.8.64-1.7.5-2.6-.16-.9-.63-1.72-1.32-2.3-.7-.6-1.58-.92-2.5-.92-.9 0-1.78.32-2.48.9-.7.6-1.16 1.42-1.3 2.3-.16.9 0 1.83.48 2.62.46.78 1.2 1.37 2.05 1.67l.34.1v7.17H40.5v-4.7l-5.13-3 .45-.45c.36-.36.65-.78.84-1.25.2-.46.3-.96.3-1.47 0-.75-.23-1.48-.63-2.1-.4-.63-1-1.12-1.67-1.42-.68-.3-1.44-.4-2.17-.27-.75.12-1.44.45-2 .95-.54.5-.93 1.15-1.12 1.87-.2.72-.17 1.48.07 2.2.23.7.67 1.32 1.25 1.8.58.45 1.3.74 2.03.8l.2.08 5.7 3.37v3.64h-2.56v2.6H32.4l-3.45-5.9c-.08-.87-.46-1.7-1.07-2.32-.6-.62-1.42-1.02-2.28-1.13-.87-.12-1.75.07-2.5.53-.74.45-1.3 1.15-1.6 1.98-.3.83-.3 1.73-.02 2.56.28.82.84 1.53 1.58 2 .73.47 1.6.67 2.48.57.87-.1 1.68-.48 2.3-1.1l.46-.46 3 5.13h4.74v3.7h-7.2l-.1-.33c-.3-.86-.9-1.6-1.7-2.05-.77-.46-1.7-.63-2.6-.48-.9.15-1.7.6-2.3 1.3-.57.7-.9 1.6-.9 2.5 0 .9.33 1.8.9 2.48.6.7 1.4 1.16 2.3 1.3.9.16 1.83 0 2.6-.47.8-.46 1.4-1.2 1.7-2.05l.1-.34h7.2v3.72H31.3l-3 5.16-.46-.46c-.62-.62-1.43-1-2.3-1.1-.87-.1-1.74.1-2.48.57s-1.3 1.17-1.58 2c-.3.83-.28 1.73 0 2.55.3.82.87 1.52 1.62 1.98.74.46 1.62.65 2.5.54.86-.1 1.66-.5 2.27-1.13.6-.63 1-1.45 1.08-2.32l.07-.2 3.37-5.74h3.67v2.55h2.57v3.72l-5.9 3.43c-.88.07-1.7.44-2.34 1.04-.64.6-1.05 1.4-1.17 2.26-.12.86.06 1.74.5 2.5.45.75 1.14 1.33 1.96 1.63.8.3 1.7.32 2.54.05.83-.28 1.55-.83 2.03-1.56.48-.74.7-1.62.6-2.5-.08-.86-.46-1.67-1.07-2.3l-.45-.45 5.13-3v-4.8h3.7V62l-.34.12c-.86.3-1.6.9-2.05 1.68-.47.78-.64 1.7-.5 2.6.16.9.62 1.7 1.32 2.3.7.58 1.58.9 2.48.9.9 0 1.8-.32 2.5-.9.7-.6 1.15-1.4 1.3-2.3.15-.9-.02-1.82-.48-2.6-.47-.8-1.2-1.38-2.05-1.68l-.34-.12v-7.24h3.73v4.8l5.15 3-.45.44c-.62.62-1 1.43-1.1 2.3-.1.86.1 1.73.58 2.47.46.73 1.17 1.3 2 1.57.82.3 1.7.28 2.53 0 .82-.3 1.52-.87 1.98-1.6.46-.76.65-1.63.54-2.5-.1-.86-.5-1.67-1.13-2.28-.62-.6-1.43-.98-2.3-1.07l-.2-.07-5.73-3.37v-3.73h2.58v-2.55h3.7l3.42 5.94c.08.87.46 1.7 1.07 2.3.6.64 1.4 1.04 2.27 1.15.87.1 1.75-.08 2.5-.53.74-.46 1.3-1.16 1.6-1.98.3-.82.3-1.72.03-2.55-.28-.82-.84-1.52-1.58-2-.73-.46-1.6-.67-2.48-.58-.87.1-1.68.48-2.3 1.1l-.46.46-3-5.16H54.2v-3.67l7.2-.04zm3.75-2.9c.4 0 .78.1 1.1.33.34.22.6.53.75.9.15.36.2.76.1 1.15-.07.4-.26.74-.54 1.02s-.63.47-1.02.55c-.4.08-.8.04-1.16-.1-.36-.16-.67-.42-.9-.75-.2-.33-.33-.7-.33-1.1 0-.54.2-1.05.6-1.42.36-.38.87-.6 1.4-.6zm0-12.07c.4 0 .78.12 1.1.34.34.22.6.53.75.9.15.36.2.76.1 1.15-.07.4-.26.74-.54 1.02s-.63.47-1.02.55c-.4.07-.8.03-1.16-.12-.36-.15-.67-.4-.9-.74-.2-.33-.33-.7-.33-1.1 0-.54.2-1.05.6-1.42.36-.38.87-.6 1.4-.6zm-8-8c.4 0 .78.12 1.1.34.34.22.6.53.75.9.15.36.2.76.1 1.15-.07.4-.26.74-.54 1.02s-.63.47-1.02.55c-.4.07-.8.03-1.16-.12-.36-.15-.67-.4-.9-.74-.2-.33-.33-.7-.33-1.1 0-.27.06-.53.16-.77.1-.25.26-.46.45-.65.2-.18.4-.33.65-.43.25-.1.5-.15.77-.15l-.02-.02zm-24.1 4c-.4 0-.77-.12-1.1-.34-.33-.23-.6-.54-.74-.9-.14-.37-.18-.77-.1-1.16.08-.4.27-.74.55-1.02s.63-.47 1.02-.55c.4-.08.8-.04 1.16.1.36.16.67.42.9.75.2.33.33.7.33 1.1 0 .54-.2 1.04-.58 1.4-.37.38-.87.6-1.4.6h-.02zm-8 8c-.4 0-.77-.12-1.1-.34-.33-.23-.6-.54-.74-.9-.14-.37-.18-.77-.1-1.16.08-.4.27-.74.55-1.02s.63-.47 1.02-.55c.4-.08.8-.04 1.16.1.36.16.67.42.9.75.2.33.33.7.33 1.1 0 .53-.2 1.02-.58 1.4-.36.35-.85.57-1.37.58l-.04.03zm0 12c-.4 0-.77-.12-1.1-.34-.33-.23-.6-.54-.74-.9-.14-.37-.18-.77-.1-1.16.08-.4.27-.74.55-1.02s.63-.47 1.02-.55c.4-.08.8-.04 1.16.1.36.16.67.42.9.75.2.33.33.7.33 1.1 0 .53-.2 1.03-.57 1.4-.37.38-.87.6-1.4.6h-.04zm0 12.06c-.4 0-.77-.13-1.1-.35-.33-.22-.6-.53-.74-.9-.14-.36-.18-.76-.1-1.15.08-.4.27-.74.55-1.02s.63-.47 1.02-.55c.4-.08.8-.04 1.16.1.36.16.67.42.9.75.2.33.33.7.33 1.1 0 .53-.2 1.03-.57 1.4-.37.38-.87.6-1.4.6h-.04zm8 8c-.4 0-.77-.13-1.1-.35-.33-.22-.6-.53-.74-.9-.14-.36-.18-.76-.1-1.15.08-.4.27-.74.55-1.02s.63-.47 1.02-.55c.4-.08.8-.04 1.16.1.36.16.67.42.9.75.2.33.33.7.33 1.1 0 .53-.22 1.03-.6 1.4-.36.37-.86.58-1.38.6h-.02zm24.1-4c.4 0 .78.1 1.1.33.34.22.6.53.75.9.15.36.2.76.1 1.15-.07.4-.26.74-.54 1.02s-.63.47-1.02.55c-.4.08-.8.04-1.16-.1-.36-.16-.67-.42-.9-.75-.2-.33-.33-.7-.33-1.1 0-.27.05-.54.15-.78.1-.24.25-.47.44-.65.2-.2.4-.33.66-.43.24-.1.5-.15.77-.15h-.02zm-14-38.07c0-.4.12-.78.34-1.1.2-.34.52-.6.88-.75.37-.15.77-.2 1.16-.1.4.07.74.26 1.02.54s.47.63.55 1.02c.1.4.05.8-.1 1.16-.15.36-.4.67-.74.9-.33.2-.7.33-1.1.33-.54 0-1.04-.2-1.42-.6-.37-.36-.58-.87-.58-1.4zm3.93 40.05c0 .4-.12.78-.34 1.1-.22.34-.53.6-.9.75-.36.15-.76.2-1.15.1-.4-.07-.75-.26-1.03-.54-.28-.3-.47-.64-.55-1.03-.08-.4-.04-.8.1-1.16.16-.35.42-.66.75-.88.33-.22.7-.34 1.1-.34.27 0 .53.05.78.15.24.1.46.25.65.43.2.2.34.4.44.65.1.26.15.52.15.78h-.02zm5.26-12.84H37.9V38.4h14.45v14.44zm12.8 2.87c.4 0 .78.13 1.1.35.34.22.6.53.75.9.14.36.18.76.1 1.15-.08.4-.27.74-.55 1.02s-.63.47-1.02.55c-.4.08-.8.04-1.16-.1-.36-.16-.67-.42-.9-.75-.2-.33-.33-.7-.33-1.1 0-.27.05-.53.15-.78.1-.24.24-.46.43-.65.2-.2.4-.34.65-.44.25-.1.5-.15.77-.15zM48.56 42.18H41.7V49h6.86v-6.82zm-1.86 5h-3.15V44h3.15v3.18z"/></svg>