<svg xmlns="http://www.w3.org/2000/svg" width="91" height="91" fill="none"><path fill="#7C64BF" d="M67.8 36h-5.22v-7.84c0-.97-.38-1.9-1.07-2.58-.67-.7-1.6-1.07-2.57-1.07H30.2c-.18 0-.36.08-.5.2-.12.14-.2.32-.2.5s.08.36.2.5c.14.12.32.2.5.2h25.9c-.53.63-.8 1.43-.8 2.26v31.3H22.93V28.2c0-.6.24-1.18.66-1.6.43-.43 1-.67 1.6-.67h2.25c.18 0 .36-.06.5-.2.12-.12.2-.3.2-.48s-.08-.36-.2-.5c-.14-.12-.32-.2-.5-.2H25.2c-.96 0-1.88.4-2.56 1.08-.7.7-1.07 1.6-1.07 2.58v32c0 .1.02.18.05.26.03.1.08.16.15.23.06.06.13.1.22.15.07.03.16.05.25.05h8.18v2.48c0 .96.4 1.9 1.07 2.57.68.68 1.6 1.07 2.57 1.07h30.78c.96 0 1.9-.4 2.57-1.08.68-.68 1.07-1.6 1.07-2.57V36.7c0-.17-.08-.35-.2-.48-.14-.13-.32-.2-.5-.2V36zm-.7 27.33c-.03.57-.28 1.1-.7 1.5-.42.4-.98.62-1.56.62-.57 0-1.13-.22-1.55-.6-.43-.4-.68-.95-.72-1.52V47c0-.18-.07-.36-.2-.5-.13-.12-.3-.2-.5-.2-.17 0-.35.08-.48.2-.13.14-.2.32-.2.5v16.3c0 .83.28 1.63.8 2.27H34.07c-.6 0-1.17-.24-1.6-.66-.42-.42-.66-1-.66-1.6v-2.47H56c.1 0 .18-.02.26-.05.1-.04.16-.1.23-.15.05-.07.1-.14.14-.23.03-.08.05-.17.05-.26v-32c0-.6.23-1.18.65-1.6.42-.43 1-.67 1.6-.67.6 0 1.18.24 1.6.66.22.2.4.46.5.74.12.28.17.57.17.87v16.1c0 .2.07.37.2.5s.3.2.5.2c.17 0 .35-.07.48-.2s.2-.3.2-.5V37.4h4.53l-.02 25.93zM64.85 67.14H34.08c-1 0-1.97-.4-2.68-1.1-.72-.72-1.12-1.68-1.12-2.7V61h-8c-.22 0-.43-.1-.6-.25-.14-.16-.23-.37-.23-.6v-32c0-1 .4-1.96 1.1-2.67.72-.72 1.68-1.12 2.7-1.12h2.23c.22 0 .44.1.6.25.15.16.24.38.24.6 0 .22-.1.44-.25.6-.15.15-.37.24-.6.24h-2.23c-.56 0-1.1.22-1.5.62-.4.4-.62.94-.62 1.5v31.16h32.05V28.18c0-.76.23-1.5.65-2.12H30.2c-.22 0-.44-.1-.6-.25-.15-.14-.24-.36-.24-.58 0-.22.1-.44.25-.6.16-.15.38-.24.6-.24h28.73c1 0 1.97.4 2.68 1.12.73.7 1.13 1.67 1.13 2.68v7.7h5.07c.22 0 .43.08.6.24.15.16.24.37.24.6v26.63c0 1-.4 1.97-1.1 2.68-.72.7-1.68 1.1-2.7 1.1zM25.2 24.7c-.92 0-1.8.36-2.46 1-.65.67-1.02 1.55-1.02 2.48v32c0 .14.06.28.15.38.1.1.24.16.38.16h8.33v2.63c0 .93.37 1.8 1.03 2.47.66.65 1.55 1.02 2.48 1.02h30.76c.93 0 1.82-.37 2.47-1.02.67-.66 1.04-1.54 1.04-2.47V36.7c0-.13-.06-.27-.16-.37-.1-.1-.24-.15-.38-.15h-5.38v-8c0-.46-.1-.9-.26-1.34-.18-.42-.43-.8-.76-1.13-.32-.32-.7-.57-1.13-.75-.43-.17-.88-.26-1.34-.26H30.2c-.13 0-.25.07-.33.17-.1.1-.14.22-.14.36 0 .13.05.25.14.35.08.1.2.16.33.18h26.2l-.2.24c-.5.62-.76 1.4-.76 2.18v31.47H22.8V28.18c0-.64.25-1.26.7-1.7.45-.46 1.07-.72 1.7-.72h2.25c.08 0 .15 0 .23-.02.07-.02.14-.06.2-.1.06-.06.1-.12.14-.2.03-.06.04-.14.04-.2 0-.1 0-.17-.04-.24-.04-.07-.08-.13-.14-.18-.06-.05-.13-.1-.2-.1-.08-.03-.15-.04-.23-.03H25.2zm39.64 41.07c-.64 0-1.25-.26-1.7-.7-.46-.47-.7-1.08-.7-1.72V47c-.03-.13-.1-.25-.2-.33-.1-.1-.2-.14-.34-.14s-.26.05-.36.14c-.1.08-.16.2-.18.33v16.3c0 .8.27 1.56.76 2.18l.2.25H34.08c-.64 0-1.26-.26-1.7-.7-.47-.46-.72-1.08-.72-1.72V60.7H56c.14 0 .28-.06.38-.16.1-.1.16-.24.16-.38v-32c0-.32.06-.63.18-.93.12-.28.3-.55.52-.77.23-.23.5-.4.8-.53.28-.12.6-.18.9-.18.65 0 1.27.25 1.72.7.46.46.7 1.08.7 1.72v16.1c0 .1 0 .16.03.24 0 .07.05.14.1.2s.1.1.18.13c.07.05.15.06.23.06.08 0 .16 0 .23-.05.07-.02.13-.06.18-.12.06-.06.1-.13.12-.2.02-.08.03-.15.02-.23v-7h4.84v26.1c0 .64-.25 1.26-.7 1.7-.46.47-1.08.72-1.72.72h-.02zM61.9 46.2c.2 0 .42.1.58.25.16.16.25.37.25.6v16.3c0 .42.12.83.35 1.18.24.35.57.62.95.78.4.17.82.2 1.23.12.4-.08.8-.28 1.08-.58.2-.2.35-.43.46-.68.1-.26.16-.53.16-.8v-25.8h-4.23v6.73c0 .2-.1.43-.25.58-.15.16-.37.25-.6.25-.2 0-.43-.1-.58-.25-.16-.15-.25-.37-.25-.6V28.2c.02-.3-.02-.58-.12-.85-.1-.28-.25-.53-.45-.74-.2-.22-.43-.4-.7-.5-.27-.13-.55-.2-.84-.2-.3 0-.58.07-.85.2-.28.1-.52.28-.7.5-.2.2-.37.45-.46.73-.1.27-.14.56-.12.85v32c0 .22-.1.43-.25.6-.16.15-.37.24-.6.24H32v2.33c0 .28.05.55.16.8.1.27.26.5.46.7.2.2.43.35.7.45.25.1.52.16.8.16H61.7c-.42-.62-.65-1.36-.65-2.1V47c0-.2.1-.4.26-.56.17-.15.38-.23.6-.23zM37.34 30.3c0-.1-.02-.18-.05-.26-.05-.1-.1-.16-.16-.22-.07-.07-.14-.12-.23-.15-.07-.03-.16-.05-.25-.05h-10.5c-.1 0-.2.02-.27.05-.08.03-.16.08-.22.15-.07.06-.12.14-.15.22-.02.08-.04.17-.04.26v8.32c0 .1.02.18.05.26.04.1.1.16.16.23s.13.12.22.16c.08.03.17.05.26.05h10.5c.1 0 .2 0 .27-.04.1-.04.17-.1.24-.15.06-.06.1-.13.15-.22.02-.08.04-.17.04-.26V30.3zM36 37.94h-9.14v-7H36v7zM36.65 39.46h-10.5c-.23 0-.44-.1-.6-.25-.16-.15-.25-.36-.25-.58V30.3c0-.22.1-.43.25-.6.16-.14.37-.23.6-.23h10.5c.1 0 .22.02.32.06.1.04.2.1.27.18.08.1.14.18.2.28.03.1.05.2.05.32v8.32c0 .22-.1.44-.26.6-.15.15-.37.24-.6.24zm-10.5-9.7c-.15 0-.3.07-.38.17-.1.1-.16.23-.16.37v8.32c0 .14.07.28.16.38.1.1.24.16.38.16h10.5c.15 0 .3-.06.4-.16.1-.1.15-.24.15-.38V30.3c0-.14-.07-.28-.17-.38-.1-.1-.24-.15-.38-.15h-10.5zm10 8.33H26.7v-7.26h9.44v7.25zM27 37.8h8.84v-6.66H27v6.65zM36.65 42.1h-10.5c-.2 0-.37.06-.5.2-.13.12-.2.3-.2.48s.07.36.2.5c.13.12.3.2.5.2h10.5c.18 0 .36-.08.5-.2.12-.14.2-.32.2-.5s-.08-.36-.2-.5c-.14-.12-.32-.2-.5-.2zM36.65 43.62h-10.5c-.12 0-.23-.02-.33-.06-.1-.05-.2-.1-.27-.2-.08-.06-.14-.16-.2-.26-.03-.1-.05-.2-.05-.32 0-.1.02-.22.06-.32.05-.1.1-.2.2-.27.06-.1.16-.15.26-.2.1-.04.2-.06.32-.06h10.5c.23 0 .45.1.6.25.16.14.25.36.25.58 0 .22-.1.44-.26.6-.15.15-.37.24-.6.24zm-10.5-1.37c-.14.02-.26.08-.34.18-.08.1-.13.22-.13.35 0 .14.05.26.14.36.1.1.2.16.34.18h10.5c.1 0 .16 0 .24-.02.07-.02.14-.06.2-.1.06-.06.1-.12.13-.2.05-.06.06-.14.06-.22 0-.07 0-.15-.05-.22-.02-.07-.06-.13-.12-.18-.06-.05-.13-.1-.2-.1-.08-.03-.15-.04-.23-.03h-10.5zM36.65 46.25h-10.5c-.2 0-.37.07-.5.2s-.2.3-.2.5c0 .17.07.35.2.48s.3.2.5.2h10.5c.18 0 .36-.07.5-.2.12-.13.2-.3.2-.5 0-.17-.08-.35-.2-.48-.14-.13-.32-.2-.5-.2zM36.65 47.78h-10.5c-.23 0-.45-.1-.6-.25-.16-.15-.25-.37-.25-.6 0-.2.1-.43.25-.58.15-.16.37-.25.6-.25h10.5c.22 0 .44.1.6.25.15.15.24.37.24.6 0 .2-.1.43-.26.58-.15.16-.37.25-.6.25zm-10.5-1.38c-.15 0-.3.06-.4.16-.08.1-.14.24-.14.38s.07.28.16.38c.1.1.24.16.38.16h10.5c.15 0 .3-.06.4-.16.1-.1.15-.24.15-.38s-.07-.28-.17-.38c-.1-.1-.24-.16-.38-.16h-10.5zM36.65 50.4h-10.5c-.2 0-.37.08-.5.2-.13.14-.2.32-.2.5s.07.36.2.5c.13.12.3.2.5.2h10.5c.18 0 .36-.08.5-.2.12-.14.2-.32.2-.5s-.08-.36-.2-.5c-.14-.12-.32-.2-.5-.2zM36.65 51.94h-10.5c-.23 0-.45-.1-.6-.25-.16-.16-.25-.38-.25-.6 0-.22.1-.44.25-.6.15-.15.37-.24.6-.24h10.5c.22 0 .44.1.6.25.15.16.24.38.24.6 0 .22-.1.44-.26.6-.15.15-.37.24-.6.24zm-10.5-1.38c-.15 0-.3.06-.4.16-.08.1-.14.24-.14.38s.07.28.16.38c.1.1.24.16.38.16h10.5c.15 0 .3-.06.4-.16.1-.1.15-.24.15-.38s-.07-.28-.17-.38c-.1-.1-.24-.16-.38-.16h-10.5zM36.65 54.57h-10.5c-.2 0-.37.07-.5.2s-.2.3-.2.5c0 .17.07.35.2.48s.3.2.5.2h10.5c.18 0 .36-.07.5-.2.12-.13.2-.3.2-.5 0-.17-.08-.35-.2-.48-.14-.13-.32-.2-.5-.2zM36.65 56.1h-10.5c-.12 0-.23-.02-.33-.06-.1-.05-.2-.1-.27-.2-.08-.06-.14-.16-.2-.26-.03-.1-.05-.2-.05-.32 0-.1.02-.22.06-.32.05-.1.1-.2.2-.27.06-.08.16-.14.26-.2.1-.03.2-.05.32-.05h10.5c.23 0 .45.1.6.25.16.15.25.37.25.6 0 .2-.1.43-.26.58-.15.16-.37.25-.6.25zm-10.5-1.38c-.15 0-.3.06-.4.16-.1.1-.15.24-.15.38s.06.28.16.38c.1.1.24.16.38.16h10.5c.15 0 .3-.06.4-.16.1-.1.15-.24.15-.38s-.07-.28-.17-.38c-.1-.1-.24-.16-.38-.16h-10.5zM41.4 31h10.5c.2 0 .37-.07.5-.2s.2-.3.2-.5c0-.08-.02-.17-.05-.25-.04-.1-.1-.16-.15-.22-.07-.07-.14-.12-.23-.15-.08-.03-.17-.05-.26-.05H41.4c-.1 0-.18.02-.26.05-.1.03-.16.08-.23.15-.05.06-.1.13-.14.22-.03.08-.05.17-.05.26 0 .2.08.37.2.5.14.13.32.2.5.2zM51.9 31.14H41.4c-.12 0-.24 0-.35-.04-.1-.03-.2-.1-.3-.17-.1-.08-.16-.17-.2-.28-.06-.1-.08-.23-.08-.34 0-.1.02-.23.07-.34.05-.1.12-.2.2-.28.1-.08.2-.14.3-.17.12-.03.24-.04.36-.03h10.5c.13 0 .25 0 .36.04.1.04.2.1.3.18.1.08.16.17.2.28.06.1.08.23.08.34 0 .12-.02.24-.07.35-.05.1-.12.2-.2.28-.1.08-.2.14-.3.17-.12.04-.24.05-.36.04zm-10.5-1.37c-.08 0-.15 0-.23.02-.07 0-.14.05-.2.1s-.1.1-.13.18c-.04.07-.05.15-.05.23 0 .08 0 .16.04.23.03.07.07.13.13.18.06.06.13.1.2.12.08.02.15.03.23.02h10.5c.1 0 .16 0 .24-.02.07-.02.14-.06.2-.1.06-.06.1-.12.13-.2.04-.06.05-.14.05-.2 0-.1 0-.17-.05-.24-.03-.07-.07-.13-.13-.18-.06-.05-.13-.1-.2-.1-.08-.03-.15-.04-.23-.03H41.4zM41.4 35.15h10.5c.1 0 .2-.02.27-.05.1-.04.16-.1.23-.15.06-.07.1-.14.15-.23.03-.08.05-.17.05-.26 0-.1-.02-.18-.05-.26-.04-.1-.1-.16-.15-.22-.07-.07-.14-.12-.23-.15-.08-.03-.17-.05-.26-.05H41.4c-.1 0-.18.02-.26.05-.1.03-.16.08-.23.15-.05.06-.1.13-.14.22-.03.08-.05.17-.05.26 0 .1.03.18.06.26.04.1.1.16.15.23.08.06.15.1.24.15.08.03.17.05.26.05zM51.9 35.3H41.4c-.12 0-.24 0-.35-.04-.1-.03-.2-.1-.3-.17-.1-.1-.16-.18-.2-.3-.06-.1-.08-.22-.08-.33 0-.12.02-.24.07-.35.05-.1.12-.2.2-.28.1-.08.2-.14.3-.17.12-.04.24-.05.36-.04h10.5c.13 0 .25 0 .36.04.1.03.2.1.3.17.1.08.16.17.2.28.06.1.08.23.08.35 0 .1-.02.23-.07.34-.05.12-.12.2-.2.3-.1.07-.2.13-.3.16-.12.04-.24.05-.36.04zm-10.5-1.37c-.08 0-.15 0-.23.02-.07.02-.14.06-.2.1-.06.06-.1.12-.13.2-.04.06-.05.14-.05.22 0 .07 0 .15.04.22.03.06.07.12.13.17.06.05.13.1.2.1.08.03.15.04.23.03h10.5c.1 0 .16 0 .24-.02.07-.02.14-.06.2-.1.06-.06.1-.12.13-.2.04-.06.05-.14.05-.2 0-.1 0-.17-.05-.24-.03-.07-.07-.13-.13-.18-.06-.05-.13-.1-.2-.1-.08-.03-.15-.04-.23-.03H41.4zM41.4 39.3h10.5c.2 0 .37-.06.5-.2.13-.12.2-.3.2-.48 0-.1-.02-.18-.05-.26-.04-.1-.1-.16-.15-.22-.07-.07-.14-.12-.23-.15-.08-.04-.17-.06-.26-.06H41.4c-.1 0-.18.02-.26.05-.1.02-.16.07-.23.14-.05.06-.1.13-.14.22-.03.08-.05.17-.05.26 0 .18.08.36.2.5.14.12.32.2.5.2zM51.9 39.46H41.4c-.22 0-.43-.1-.6-.25-.15-.15-.24-.36-.24-.58 0-.22.1-.43.25-.6.17-.14.38-.23.6-.23h10.5c.23 0 .44.08.6.23.16.16.25.37.25.6 0 .2-.1.42-.25.58-.16.17-.37.26-.6.26zM41.4 38.1c-.08-.02-.15 0-.23 0-.07.03-.14.07-.2.12-.06.05-.1.1-.13.18-.04.07-.05.15-.05.23 0 .07 0 .15.04.22.03.07.07.13.13.18.06.05.13.1.2.1.08.03.15.04.23.03h10.5c.1 0 .16 0 .24-.02.07-.02.14-.06.2-.1.06-.06.1-.12.13-.2.04-.06.05-.14.05-.22 0-.07 0-.15-.05-.22-.03-.07-.07-.13-.13-.18-.06-.05-.13-.1-.2-.1-.08-.03-.15-.04-.23-.03H41.4zM40.7 51.1c0 .18.08.36.2.5.14.12.32.2.5.2h10.5c.2 0 .37-.08.5-.2.13-.14.2-.32.2-.5v-8.32c0-.1-.02-.18-.05-.26-.04-.1-.1-.16-.15-.22-.07-.07-.14-.12-.23-.15-.08-.03-.17-.05-.26-.05H41.4c-.1 0-.18.02-.26.05-.1.03-.16.08-.23.15-.05.06-.1.13-.14.22-.03.08-.05.17-.05.26v8.32zm1.4-7.63h9.12v6.94H42.1v-6.93zM51.9 51.94H41.4c-.22 0-.43-.1-.6-.25-.15-.17-.24-.38-.24-.6v-8.32c0-.22.1-.43.25-.6.17-.15.38-.24.6-.24h10.5c.23 0 .44.1.6.25.16.15.25.36.25.58v8.32c0 .22-.1.43-.25.6-.16.15-.37.24-.6.24zm-10.5-9.7c-.14 0-.28.07-.38.16-.1.1-.16.24-.16.38v8.32c0 .14.06.28.16.38.1.1.24.16.38.16h10.5c.15 0 .3-.06.4-.16.1-.1.15-.24.15-.38v-8.32c0-.14-.06-.28-.16-.38-.1-.1-.25-.15-.4-.15H41.4zm10 8.32h-9.43v-7.24h9.43v7.24zm-9.13-.3h8.83v-6.64h-8.83v6.64zM41.4 56h10.5c.2 0 .37-.07.5-.2s.2-.3.2-.5c0-.17-.07-.35-.2-.48s-.3-.2-.5-.2H41.4c-.18 0-.36.07-.5.2-.12.13-.2.3-.2.5 0 .17.08.35.2.48.14.13.32.2.5.2zM51.9 56.1H41.4c-.1 0-.22-.02-.32-.06-.1-.05-.2-.1-.27-.2-.07-.06-.13-.16-.18-.26-.04-.1-.06-.2-.06-.32 0-.1.02-.22.06-.32.05-.1.1-.2.2-.27.06-.08.16-.14.26-.2.1-.03.2-.05.32-.05h10.5c.23 0 .45.1.6.25.16.15.25.37.25.6 0 .2-.1.43-.25.58-.15.16-.37.25-.6.25zm-10.5-1.38c-.14 0-.28.06-.38.16-.1.1-.16.24-.16.38s.06.28.16.38c.1.1.24.16.38.16h10.5c.15 0 .3-.06.4-.16.1-.1.15-.24.15-.38s-.06-.28-.16-.38c-.1-.1-.25-.16-.4-.16H41.4z"/></svg>